<?xml version="1.0" encoding="UTF-8" standalone="no"?>
<!-- Created with Inkscape (http://www.inkscape.org/) -->

<svg
   xmlns:dc="http://purl.org/dc/elements/1.1/"
   xmlns:cc="http://creativecommons.org/ns#"
   xmlns:rdf="http://www.w3.org/1999/02/22-rdf-syntax-ns#"
   xmlns:svg="http://www.w3.org/2000/svg"
   xmlns="http://www.w3.org/2000/svg"
   xmlns:sodipodi="http://sodipodi.sourceforge.net/DTD/sodipodi-0.dtd"
   xmlns:inkscape="http://www.inkscape.org/namespaces/inkscape"
   width="8.5in"
   height="11in"
   viewBox="0 0 215.9 279.4"
   version="1.1"
   id="svg8"
   inkscape:version="0.92.3 (2405546, 2018-03-11)"
   sodipodi:docname="lozas_printable.svg">
  <defs
     id="defs2">
    <path
       inkscape:connector-curvature="0"
       id="path1462-1"
       d="m 129.51118,163.93498 a 21.582014,21.582014 0 0 1 30.41444,-2.55514 21.582014,21.582014 0 0 1 2.55514,30.41444 21.582014,21.582014 0 0 1 -30.41443,2.55514 21.582014,21.582014 0 0 1 -2.55515,-30.41444 z"
       style="opacity:0.8;fill:none;fill-opacity:1;stroke:none;stroke-width:7.61999989;stroke-linecap:round;stroke-linejoin:round;stroke-miterlimit:4;stroke-dasharray:none;stroke-opacity:1" />
    <path
       inkscape:connector-curvature="0"
       id="path1462-15"
       d="m 129.51118,163.93498 a 21.582014,21.582014 0 0 1 30.41444,-2.55514 21.582014,21.582014 0 0 1 2.55514,30.41444 21.582014,21.582014 0 0 1 -30.41443,2.55514 21.582014,21.582014 0 0 1 -2.55515,-30.41444 z"
       style="opacity:0.8;fill:none;fill-opacity:1;stroke:none;stroke-width:7.61999989;stroke-linecap:round;stroke-linejoin:round;stroke-miterlimit:4;stroke-dasharray:none;stroke-opacity:1" />
  </defs>
  <sodipodi:namedview
     id="base"
     pagecolor="#ffffff"
     bordercolor="#666666"
     borderopacity="1.0"
     inkscape:pageopacity="0.0"
     inkscape:pageshadow="2"
     inkscape:zoom="1.4"
     inkscape:cx="110.18676"
     inkscape:cy="913.21847"
     inkscape:document-units="mm"
     inkscape:current-layer="layer1"
     showgrid="false"
     units="in"
     borderlayer="true"
     inkscape:window-width="1920"
     inkscape:window-height="1017"
     inkscape:window-x="-8"
     inkscape:window-y="-8"
     inkscape:window-maximized="1" />
  <metadata
     id="metadata5">
    <rdf:RDF>
      <cc:Work
         rdf:about="">
        <dc:format>image/svg+xml</dc:format>
        <dc:type
           rdf:resource="http://purl.org/dc/dcmitype/StillImage" />
        <dc:title />
      </cc:Work>
    </rdf:RDF>
  </metadata>
  <g
     inkscape:label="Capa 1"
     inkscape:groupmode="layer"
     id="layer1"
     transform="translate(0,-17.6)">
    <g
       id="g1990"
       transform="translate(0,10.583333)">
      <path
         d="M 355.72947,422.9515 154.2857,539.25511 -47.15806,422.9515 -47.158059,190.34428 154.28571,74.040665 355.72947,190.34428 Z"
         inkscape:flatsided="true"
         inkscape:rounded="0"
         sodipodi:cx="154.28571"
         sodipodi:cy="306.64789"
         inkscape:randomized="0"
         sodipodi:arg1="0.52359878"
         sodipodi:arg2="1.0471976"
         transform="matrix(0.10529819,0.06079428,-0.06079428,0.10529819,152.76839,43.514524)"
         sodipodi:r2="201.44377"
         sodipodi:r1="232.60722"
         sodipodi:sides="6"
         sodipodi:type="star"
         style="fill:#43aa00;fill-opacity:1;stroke:#000000;stroke-width:25"
         id="path3759-66-66-3-6-2-4" />
      <path
         d="M 355.72947,422.9515 154.2857,539.25511 -47.15806,422.9515 -47.158059,190.34428 154.28571,74.040665 355.72947,190.34428 Z"
         inkscape:flatsided="true"
         inkscape:rounded="0"
         sodipodi:cx="154.28571"
         sodipodi:cy="306.64789"
         inkscape:randomized="0"
         sodipodi:arg1="0.52359878"
         sodipodi:arg2="1.0471976"
         transform="matrix(0.10529819,0.06079428,-0.06079428,0.10529819,152.77354,92.498925)"
         sodipodi:r2="201.44377"
         sodipodi:r1="232.60722"
         sodipodi:sides="6"
         sodipodi:type="star"
         style="fill:#00cbff;fill-opacity:1;stroke:#000000;stroke-width:25"
         id="path3759-4-64-7-7-6-9-5" />
      <path
         d="M 355.72947,422.9515 154.2857,539.25511 -47.15806,422.9515 -47.158059,190.34428 154.28571,74.040665 355.72947,190.34428 Z"
         inkscape:flatsided="true"
         inkscape:rounded="0"
         sodipodi:cx="154.28571"
         sodipodi:cy="306.64789"
         inkscape:randomized="0"
         sodipodi:arg1="0.52359878"
         sodipodi:arg2="1.0471976"
         transform="matrix(0.10529819,0.06079428,-0.06079428,0.10529819,110.34386,68.008314)"
         sodipodi:r2="201.44377"
         sodipodi:r1="232.60722"
         sodipodi:sides="6"
         sodipodi:type="star"
         style="fill:#ffd329;fill-opacity:1;stroke:#000000;stroke-width:25"
         id="path3759-66-37-8-1-64-1-6" />
      <path
         d="M 355.72947,422.9515 154.2857,539.25511 -47.15806,422.9515 -47.158059,190.34428 154.28571,74.040665 355.72947,190.34428 Z"
         inkscape:flatsided="true"
         inkscape:rounded="0"
         sodipodi:cx="154.28571"
         sodipodi:cy="306.64789"
         inkscape:randomized="0"
         sodipodi:arg1="0.52359878"
         sodipodi:arg2="1.0471976"
         transform="matrix(0.10529819,0.06079428,-0.06079428,0.10529819,110.34978,19.018883)"
         sodipodi:r2="201.44377"
         sodipodi:r1="232.60722"
         sodipodi:sides="6"
         sodipodi:type="star"
         style="fill:#43aa00;fill-opacity:1;stroke:#000000;stroke-width:25"
         id="path3759-4-99-2-6-0-1-5" />
      <path
         d="M 355.72947,422.9515 154.2857,539.25511 -47.15806,422.9515 -47.158059,190.34428 154.28571,74.040665 355.72947,190.34428 Z"
         inkscape:flatsided="true"
         inkscape:rounded="0"
         sodipodi:cx="154.28571"
         sodipodi:cy="306.64789"
         inkscape:randomized="0"
         sodipodi:arg1="0.52359878"
         sodipodi:arg2="1.0471976"
         transform="matrix(0.10529819,0.06079428,-0.06079428,0.10529819,110.349,116.9928)"
         sodipodi:r2="201.44377"
         sodipodi:r1="232.60722"
         sodipodi:sides="6"
         sodipodi:type="star"
         style="fill:#43aa00;fill-opacity:1;stroke:#000000;stroke-width:25"
         id="path3759-4-64-7-7-0-7-9-5" />
      <path
         d="M 355.72947,422.9515 154.2857,539.25511 -47.15806,422.9515 -47.158059,190.34428 154.28571,74.040665 355.72947,190.34428 Z"
         inkscape:flatsided="true"
         inkscape:rounded="0"
         sodipodi:cx="154.28571"
         sodipodi:cy="306.64789"
         inkscape:randomized="0"
         sodipodi:arg1="0.52359878"
         sodipodi:arg2="1.0471976"
         transform="matrix(0.10529819,0.06079428,-0.06079428,0.10529819,67.919326,92.502133)"
         sodipodi:r2="201.44377"
         sodipodi:r1="232.60722"
         sodipodi:sides="6"
         sodipodi:type="star"
         style="fill:#43aa00;fill-opacity:1;stroke:#000000;stroke-width:25"
         id="path3759-66-37-8-1-6-7-9-3" />
      <path
         d="M 355.72947,422.9515 154.2857,539.25511 -47.15806,422.9515 -47.158059,190.34428 154.28571,74.040665 355.72947,190.34428 Z"
         inkscape:flatsided="true"
         inkscape:rounded="0"
         sodipodi:cx="154.28571"
         sodipodi:cy="306.64789"
         inkscape:randomized="0"
         sodipodi:arg1="0.52359878"
         sodipodi:arg2="1.0471976"
         transform="matrix(0.10529819,0.06079428,-0.06079428,0.10529819,67.925281,43.512702)"
         sodipodi:r2="201.44377"
         sodipodi:r1="232.60722"
         sodipodi:sides="6"
         sodipodi:type="star"
         style="fill:#00cbff;fill-opacity:1;stroke:#000000;stroke-width:25"
         id="path3759-4-99-2-6-2-5-1-7" />
    </g>
    <g
       id="g1981"
       transform="translate(0,-0.52916663)">
      <path
         d="M 355.72947,422.9515 154.2857,539.25511 -47.15806,422.9515 -47.158059,190.34428 154.28571,74.040665 355.72947,190.34428 Z"
         inkscape:flatsided="true"
         inkscape:rounded="0"
         sodipodi:cx="154.28571"
         sodipodi:cy="306.64789"
         inkscape:randomized="0"
         sodipodi:arg1="0.52359878"
         sodipodi:arg2="1.0471976"
         transform="matrix(-2.9222453e-7,0.12158803,-0.12158803,-2.9222453e-7,187.65367,234.40084)"
         sodipodi:r2="201.44377"
         sodipodi:r1="232.60722"
         sodipodi:sides="6"
         sodipodi:type="star"
         style="fill:#00cbff;fill-opacity:1;stroke:#000000;stroke-width:25"
         id="path3759-66-66-3-6-2-4-7" />
      <path
         d="M 355.72947,422.9515 154.2857,539.25511 -47.15806,422.9515 -47.158059,190.34428 154.28571,74.040665 355.72947,190.34428 Z"
         inkscape:flatsided="true"
         inkscape:rounded="0"
         sodipodi:cx="154.28571"
         sodipodi:cy="306.64789"
         inkscape:randomized="0"
         sodipodi:arg1="0.52359878"
         sodipodi:arg2="1.0471976"
         transform="matrix(-2.9222453e-7,0.12158803,-0.12158803,-2.9222453e-7,145.22916,209.90701)"
         sodipodi:r2="201.44377"
         sodipodi:r1="232.60722"
         sodipodi:sides="6"
         sodipodi:type="star"
         style="fill:#43aa00;fill-opacity:1;stroke:#000000;stroke-width:25"
         id="path3759-66-37-8-1-64-1-6-4" />
      <path
         d="M 355.72947,422.9515 154.2857,539.25511 -47.15806,422.9515 -47.158059,190.34428 154.28571,74.040665 355.72947,190.34428 Z"
         inkscape:flatsided="true"
         inkscape:rounded="0"
         sodipodi:cx="154.28571"
         sodipodi:cy="306.64789"
         inkscape:randomized="0"
         sodipodi:arg1="0.52359878"
         sodipodi:arg2="1.0471976"
         transform="matrix(-2.9222453e-7,0.12158803,-0.12158803,-2.9222453e-7,187.65821,185.41743)"
         sodipodi:r2="201.44377"
         sodipodi:r1="232.60722"
         sodipodi:sides="6"
         sodipodi:type="star"
         style="fill:#ffd329;fill-opacity:1;stroke:#000000;stroke-width:25"
         id="path3759-4-99-2-6-0-1-5-0" />
      <path
         d="M 355.72947,422.9515 154.2857,539.25511 -47.15806,422.9515 -47.158059,190.34428 154.28571,74.040665 355.72947,190.34428 Z"
         inkscape:flatsided="true"
         inkscape:rounded="0"
         sodipodi:cx="154.28571"
         sodipodi:cy="306.64789"
         inkscape:randomized="0"
         sodipodi:arg1="0.52359878"
         sodipodi:arg2="1.0471976"
         transform="matrix(-2.9222453e-7,0.12158803,-0.12158803,-2.9222453e-7,102.80993,234.40371)"
         sodipodi:r2="201.44377"
         sodipodi:r1="232.60722"
         sodipodi:sides="6"
         sodipodi:type="star"
         style="fill:#ffd329;fill-opacity:1;stroke:#000000;stroke-width:25"
         id="path3759-4-64-7-7-0-7-9-5-6" />
      <path
         d="M 355.72947,422.9515 154.2857,539.25511 -47.15806,422.9515 -47.158059,190.34428 154.28571,74.040665 355.72947,190.34428 Z"
         inkscape:flatsided="true"
         inkscape:rounded="0"
         sodipodi:cx="154.28571"
         sodipodi:cy="306.64789"
         inkscape:randomized="0"
         sodipodi:arg1="0.52359878"
         sodipodi:arg2="1.0471976"
         transform="matrix(-2.9222453e-7,0.12158803,-0.12158803,-2.9222453e-7,102.80462,185.4132)"
         sodipodi:r2="201.44377"
         sodipodi:r1="232.60722"
         sodipodi:sides="6"
         sodipodi:type="star"
         style="fill:#00cbff;fill-opacity:1;stroke:#000000;stroke-width:25"
         id="path3759-66-37-8-1-6-7-9-3-4" />
    </g>
    <g
       transform="matrix(0.10823929,0,0,0.10823929,176.9691,252.58019)"
       id="layer1-4"
       inkscape:label="Capa 1"
       style="opacity:0.75">
      <g
         inkscape:export-ydpi="72"
         inkscape:export-xdpi="72"
         inkscape:export-filename="/home/joan/Imágenes/Juegos/Midgard/game_manual_assets/midgarhex_web_logo.png"
         id="g828">
        <g
           id="g2573"
           transform="translate(-394.48982,-44.901281)">
          <path
             inkscape:connector-curvature="0"
             id="path1458-0-7"
             transform="matrix(0.26458333,0,0,0.26458333,0,87)"
             d="m 1900.1016,450.55469 -144,83.13867 V 699.9707 l 144,83.13868 144,-83.13868 V 533.69336 Z m -3.875,46.24219 c 42.2042,0.25791 84.8435,20.28012 96.8632,51.41992 2.56,9.00128 8.1236,46.48262 -8.2519,56.10156 -7.0469,4.13673 -5.2632,9.07899 -9.6992,17.18555 -3.0834,9.44031 -3.7188,16.17626 3.4433,36.48242 1.5309,4.34011 -4.3172,6.10036 -8.5,8.01953 -4.8563,2.22818 -10.3876,-4.27366 -15.6679,-3.45898 -6.2872,0.97016 -13.7004,3.8353 -16.5059,9.54492 -0.967,1.96773 0.3956,4.40161 0.875,6.54101 1.3813,6.16309 -11.278,13.08346 -11.2969,1.29492 -0.016,-9.86675 -5.4981,-6.93452 -6.084,-0.875 -0.3712,3.8425 1.8974,13.4709 -5.6679,10 -3.7938,-1.74058 -4.1804,-6.37149 -3.9102,-4.33398 0.123,0.92799 -3.8144,-2.17098 -2.7285,0.29297 2.6485,6.01024 -9.5625,7.18918 -9.5625,4.0039 0,-3.35754 -3.1572,-10.64341 -2.2812,-6.2539 0.3132,1.56941 -1.3042,-7.5511 -2.3633,-6.10547 -0.5754,0.78516 -0.7157,10.42033 -1.6934,11.5918 -1.7168,2.057 -7.1643,4.23469 -9.2617,-0.93555 -0.4725,-1.16504 0.2457,-2.86995 0.06,-5.20898 -0.2264,-2.85994 -2.8884,-2.7865 -3.6855,-0.49414 -0.846,2.43291 -0.1458,8.73945 -1.5156,8.96093 -3.0494,0.49319 -4.3074,-1.26212 -6.9512,-2.80273 -1.9781,-1.15272 -5.1401,-0.32142 -4.4551,-3.19727 -0.3768,-1.84165 1.2352,-3.04294 1.4004,-4.65234 0.3114,-3.03976 -0.4678,-6.47567 -0.498,-6.40235 -0.1048,-1.25688 -3.5945,-1.92622 -4.2774,2.94922 -0.4442,3.17073 -0.6701,6.06666 -1.9297,6.07422 -4.8606,0.0191 -5.8897,-3.44003 -3.2812,-8.24218 0.3894,-11.08082 -23.4268,-10.68111 -24.3399,-8.70899 -0.9937,2.14655 -6.4324,2.71924 -11.8281,2.0918 -5.3295,-0.61992 -6.6026,-5.32519 -6.8437,-13.84375 -0.1866,-6.58175 9.2846,-23.54684 6.0839,-31.26172 -2.3137,-5.57711 -4.1293,-13.94366 -10.8769,-18.25391 -4.3038,-11.11544 -10.6157,-40.35581 -4.0703,-56.09765 15.1688,-36.48201 52.0584,-51.64474 89.2988,-51.41797 z m 46.3222,93.85156 c -7.0755,0.0665 -13.6181,0.97032 -19.7011,4.49023 -16.935,9.79922 -16.0496,14.73299 -8.6719,23.04492 8.909,10.03843 22.9953,12.85476 37.3476,8.67188 18.8208,-5.48387 16.7195,-35.3166 -1.7129,-36.05274 -2.4842,-0.0994 -4.9051,-0.17502 -7.2636,-0.15234 z m -89.1875,0.0156 v 0.002 c -2.301,-0.0223 -4.5556,0.051 -6.7324,0.15039 -18.4277,0.83739 -20.571,30.60668 -1.75,36.09179 14.351,4.18288 28.4745,1.32967 37.3847,-8.70898 7.3777,-8.31194 8.265,-13.21062 -8.6699,-23.00977 -6.083,-3.51991 -13.3317,-4.45849 -20.2344,-4.52539 z m 45.5157,31.64063 c -1.4363,0.0304 -2.2595,0.35464 -3.3379,1.82812 0.088,-0.26298 -9.9214,16.8495 -10.7637,19.05274 -3.1449,8.22723 6.2127,6.31766 7.8359,4.18359 2.2197,-1.98081 1.8583,-6.34652 6.9219,-6.3125 5.0637,0.0312 4.9468,3.32559 6.9219,6.16016 1.6235,2.13396 10.9791,4.04559 7.834,-4.18164 -0.8422,-2.20332 -10.8491,-19.31812 -10.7618,-19.05469 -1.0078,-1.77305 -2.1322,-1.63263 -3.9941,-1.67383 -0.2328,-0.005 -0.451,-0.005 -0.6562,-0.002 z m -52.8399,46.76953 c 1.6101,-0.10182 3.7729,2.6821 5.0918,5.92187 1.2398,3.04589 1.0945,8.69374 2.6758,11.88672 4.5276,4.52784 5.7261,8.46649 8.2578,4.34571 2.4921,0.89669 5.9336,-0.16994 7.8105,1.95703 0.7054,0.79952 -0.115,3.78467 1.0997,5.21484 l 4.1289,0.2168 c 0.7352,-6.8408 6.0293,-4.89756 7.3886,-1.08594 l 3.4786,-0.43555 c 3.0922,-6.68402 8.7412,-2.42891 10.6484,0.65235 l 2.9297,-0.2168 c 0.5442,-0.59044 2e-4,-2.33764 1.6328,-2.33008 1.512,0.005 2.1745,-2.0417 3.2617,3.19922 l 4.5625,-0.2168 c 0.7724,-2.23657 0.9914,-5.02701 5.6621,-3.36523 1.6621,0.29095 2.2385,3.43259 3.9004,3.14648 l 3.4766,0.43555 c 0.1203,-9.76445 4.9675,-8.50091 10.2148,-6.30273 3.4232,2.60265 5.9228,1.8164 7.6074,-1.95508 l 2.6055,-12.38867 c 1.6026,-7.61227 7.2944,-9.28993 7.1738,1.73828 -0.1024,9.35244 -0.4779,19.43268 1.086,24.34179 2.2316,6.79858 -3.1808,7.48075 -6.3028,9.9961 -3.7717,0.71418 -7.5714,1.37611 -10.2148,4.34765 l -5.4317,6.30079 c -2.9548,5.50378 -7.9907,7.52299 -13.2578,7.82421 -5.5784,1.18443 -4.65,4.52364 -15.9765,4.56446 -11.3266,0.0407 -10.3645,-6.16538 -24.4453,-9.34571 l -14.7774,-5.65039 c -10.3938,-0.37923 -13.0829,-3.0893 -13.041,-18.03711 0.01,-3.68292 0.2161,-9.79199 -0.9219,-13.46093 -1.3315,-4.29336 -2.0344,-7.85739 -2.3379,-12.61914 -0.3988,-6.25369 0.5931,-8.59012 2.0137,-8.67969 z"
             style="opacity:1;fill:#00aad4;fill-opacity:1;stroke:none;stroke-width:74.28598785;stroke-linecap:round;stroke-linejoin:round;stroke-miterlimit:4;stroke-dasharray:none;stroke-opacity:1" />
          <path
             inkscape:connector-curvature="0"
             id="path1458-0-78"
             transform="matrix(0.26458333,0,0,0.26458333,0,87)"
             d="m 2044.1016,201.13867 -144,83.13867 v 166.27735 l 144,83.13867 144,-83.13867 V 284.27734 Z m -89.168,75.34375 c 5.4701,27.41764 27.0398,29.54815 38.3769,28.67969 l -0.6601,-1.56055 3.291,-1.38867 c 0.1045,-2.91024 1.8495,-5.63754 4.7109,-6.8457 2.8616,-1.2082 6.0329,-0.55653 8.1915,1.39843 l 3.4765,-1.46874 10.3633,24.54101 -2.8106,1.18555 24.2286,57.38672 24.2304,-57.38672 -2.8105,-1.18555 10.3613,-24.54101 3.4785,1.46874 c 2.1586,-1.95496 5.3299,-2.60663 8.1914,-1.39843 2.8615,1.20816 4.6067,3.93546 4.711,6.8457 l 3.289,1.38867 -0.6582,1.56055 c 11.3371,0.86846 32.905,-1.26205 38.375,-28.67969 0,0 36.6772,27.6286 12.4317,77.21094 -24.2455,49.58237 -60.3633,46.25195 -60.3633,46.25195 0,0 40.6652,-60.30833 0.6719,-73.73828 l -0.8184,1.93555 -2.6211,-1.10547 -30.0801,71.24023 36.1973,85.73243 c 1.6611,3.93407 -0.1792,8.46397 -4.1133,10.125 -3.9341,1.66106 -8.462,-0.17914 -10.123,-4.11329 l -30.3496,-71.8789 -30.3477,71.8789 c -1.6611,3.93385 -6.1909,5.77435 -10.125,4.11329 -3.9338,-1.66103 -5.7744,-6.19093 -4.1133,-10.125 l 36.1992,-85.73243 -30.08,-71.24023 -2.6231,1.10547 -0.8164,-1.93555 c -39.9933,13.42995 0.6719,73.73828 0.6719,73.73828 0,0 -36.1198,3.33042 -60.3652,-46.25195 -24.2456,-49.58234 12.4316,-77.21094 12.4316,-77.21094 z"
             style="opacity:1;fill:#ffcc00;fill-opacity:1;stroke:none;stroke-width:74.28598785;stroke-linecap:round;stroke-linejoin:round;stroke-miterlimit:4;stroke-dasharray:none;stroke-opacity:1" />
          <path
             inkscape:connector-curvature="0"
             id="path1458-0-3"
             transform="matrix(0.26458333,0,0,0.26458333,0,87)"
             d="m 2188.1016,450.55469 -144,83.13867 V 699.9707 l 144,83.13868 144,-83.13868 V 533.69336 Z m 42.83,84.36914 c 17.3298,0.0988 34.7276,6.92119 47.9961,20.10937 24.9928,24.84439 26.0492,64.24391 3.1836,90.32813 0.2376,-0.23781 -94.1877,93.61324 -93.9492,93.3789 -0.2376,0.23365 -94.6598,-93.61701 -94.0703,-93.3789 -22.8641,-26.08422 -21.8097,-65.48374 3.1855,-90.32813 13.0548,-12.97534 28.103,-19.47265 45.1407,-19.47265 v -0.002 c 15.5878,0 33.1489,4.19428 45.6836,15.05079 12.3006,-10.62481 27.5391,-15.77276 42.83,-15.68555 z"
             style="opacity:1;fill:#00aa44;fill-opacity:1;stroke:none;stroke-width:74.28598785;stroke-linecap:round;stroke-linejoin:round;stroke-miterlimit:4;stroke-dasharray:none;stroke-opacity:1" />
        </g>
        <text
           xml:space="preserve"
           style="font-style:normal;font-weight:normal;font-size:42.39975357px;line-height:1.25;font-family:sans-serif;letter-spacing:0px;word-spacing:0px;fill:#000000;fill-opacity:1;stroke:none;stroke-width:1.05999374"
           x="42.964924"
           y="283.54276"
           id="text1556-7"><tspan
             sodipodi:role="line"
             id="tspan1554-5"
             x="42.964924"
             y="283.54276"
             style="font-style:normal;font-variant:normal;font-weight:normal;font-stretch:normal;font-family:'Passero One';-inkscape-font-specification:'Passero One';stroke-width:1.05999374">Midgard<tspan
   style="fill:#d40000;stroke-width:1.05999374"
   id="tspan2319-4">Hex</tspan></tspan></text>
      </g>
    </g>
    <text
       xml:space="preserve"
       style="font-style:normal;font-weight:normal;font-size:6.84128046px;line-height:1.25;font-family:sans-serif;letter-spacing:0px;word-spacing:0px;fill:#000000;fill-opacity:1;stroke:none;stroke-width:0.171032"
       x="13.002518"
       y="36.126747"
       id="text2020"><tspan
         sodipodi:role="line"
         id="tspan2018"
         x="13.002518"
         y="36.126747"
         style="font-style:normal;font-variant:normal;font-weight:bold;font-stretch:normal;font-family:Alef;-inkscape-font-specification:'Alef Bold';stroke-width:0.171032">Piezas imprimibles</tspan></text>
    <text
       xml:space="preserve"
       style="font-style:normal;font-weight:normal;font-size:9.29700279px;line-height:1.25;font-family:sans-serif;letter-spacing:0px;word-spacing:0px;fill:#000000;fill-opacity:1;stroke:none;stroke-width:0.23242506"
       x="8.9174337"
       y="42.721542"
       id="text2020-8"><tspan
         sodipodi:role="line"
         x="8.9174337"
         y="50.947212"
         style="font-style:normal;font-variant:normal;font-weight:normal;font-stretch:normal;font-family:Alef;-inkscape-font-specification:Alef;stroke-width:0.23242506"
         id="tspan2040" /></text>
    <flowRoot
       xml:space="preserve"
       id="flowRoot2044"
       style="font-style:normal;font-weight:normal;font-size:40px;line-height:0.5;font-family:sans-serif;letter-spacing:0px;word-spacing:0px;fill:#000000;fill-opacity:1;stroke:none"
       transform="matrix(0.26458333,0,0,0.26458333,4.9046595,21.001786)"><flowRegion
         id="flowRegion2046"
         style="line-height:0.5"><rect
           id="rect2048"
           width="274.99997"
           height="72.14286"
           x="32.142857"
           y="63.142857"
           style="line-height:0.5" /></flowRegion><flowPara
         id="flowPara2050"
         style="font-size:13.33333397px;line-height:0.5">Cortar, tantas veces como sea necesario para poder ensamblar un tablero de seis lados, girando las piezas y uniendolas.</flowPara><flowPara
         id="flowPara2052"
         style="font-size:13.33333397px;line-height:0.5" /></flowRoot>  </g>
</svg>
