<?xml version="1.0" encoding="UTF-8" standalone="no"?>
<!-- Created with Inkscape (http://www.inkscape.org/) -->

<svg
   xmlns:dc="http://purl.org/dc/elements/1.1/"
   xmlns:cc="http://creativecommons.org/ns#"
   xmlns:rdf="http://www.w3.org/1999/02/22-rdf-syntax-ns#"
   xmlns:svg="http://www.w3.org/2000/svg"
   xmlns="http://www.w3.org/2000/svg"
   xmlns:sodipodi="http://sodipodi.sourceforge.net/DTD/sodipodi-0.dtd"
   xmlns:inkscape="http://www.inkscape.org/namespaces/inkscape"
   width="210mm"
   height="297mm"
   viewBox="0 0 210 297"
   version="1.1"
   id="svg1088"
   inkscape:version="0.92.3 (2405546, 2018-03-11)"
   sodipodi:docname="Mithyc_2.svg">
  <defs
     id="defs1082" />
  <sodipodi:namedview
     id="base"
     pagecolor="#ffffff"
     bordercolor="#666666"
     borderopacity="1.0"
     inkscape:pageopacity="0.0"
     inkscape:pageshadow="2"
     inkscape:zoom="0.70710678"
     inkscape:cx="13.340335"
     inkscape:cy="583.87133"
     inkscape:document-units="mm"
     inkscape:current-layer="layer1"
     showgrid="false"
     inkscape:measure-start="343.021,1005.71"
     inkscape:measure-end="416.979,1005.71"
     inkscape:window-width="1920"
     inkscape:window-height="1013"
     inkscape:window-x="0"
     inkscape:window-y="0"
     inkscape:window-maximized="1"
     showguides="false" />
  <metadata
     id="metadata1085">
    <rdf:RDF>
      <cc:Work
         rdf:about="">
        <dc:format>image/svg+xml</dc:format>
        <dc:type
           rdf:resource="http://purl.org/dc/dcmitype/StillImage" />
        <dc:title />
      </cc:Work>
    </rdf:RDF>
  </metadata>
  <g
     inkscape:label="Capa 1"
     inkscape:groupmode="layer"
     id="layer1">
    <g
       id="g940">
      <path
         sodipodi:nodetypes="czcscccccc"
         inkscape:connector-curvature="0"
         id="rect815-7-61"
         d="m 36.501919,51.506728 c 0,0 25.654656,-11.64168 61.481864,-11.64168 35.827207,0 55.131877,11.64168 55.131877,11.64168 l 7.40833,65.494572 h -12.7 v 29.04724 H 58.726919 V 117.0013 H 33.194627 Z"
         style="opacity:1;fill:none;fill-opacity:1;stroke:#000000;stroke-width:0.90292138;stroke-linecap:round;stroke-linejoin:round;stroke-miterlimit:4;stroke-dasharray:none;stroke-dashoffset:0;stroke-opacity:1;paint-order:stroke fill markers" />
      <rect
         y="128.04855"
         x="58.275463"
         height="17.999998"
         width="89.999992"
         id="rect888-3-5-29"
         style="opacity:1;fill:#000000;fill-opacity:1;stroke:none;stroke-width:0.53999889;stroke-linecap:round;stroke-linejoin:round;stroke-miterlimit:4;stroke-dasharray:none;stroke-dashoffset:0;stroke-opacity:1;paint-order:stroke fill markers" />
      <rect
         y="119.04855"
         x="67.275467"
         height="26.999998"
         width="71.999992"
         id="rect888-3-5-2-3"
         style="opacity:1;fill:#000000;fill-opacity:1;stroke:none;stroke-width:0.59153914;stroke-linecap:round;stroke-linejoin:round;stroke-miterlimit:4;stroke-dasharray:none;stroke-dashoffset:0;stroke-opacity:1;paint-order:stroke fill markers" />
      <text
         id="text907-3-1"
         y="127.20085"
         x="90.900848"
         style="font-style:normal;font-variant:normal;font-weight:normal;font-stretch:normal;font-size:10.21697426px;line-height:125%;font-family:'Linux Libertine';-inkscape-font-specification:'Linux Libertine';letter-spacing:0px;word-spacing:0px;fill:#ffffff;fill-opacity:1;stroke:none;stroke-width:0.47892061px;stroke-linecap:butt;stroke-linejoin:miter;stroke-opacity:1"
         xml:space="preserve"><tspan
           style="font-style:normal;font-variant:normal;font-weight:normal;font-stretch:normal;font-family:'Linux Libertine';-inkscape-font-specification:'Linux Libertine';fill:#ffffff;stroke-width:0.47892061px"
           y="127.20085"
           x="90.900848"
           id="tspan905-5-94"
           sodipodi:role="line">Fafnir</tspan></text>
      <path
         inkscape:connector-curvature="0"
         id="path7300"
         d="m 73.517595,44.89513 c -10.081592,-0.0079 -20.639674,1.691917 -28.808955,5.562999 -2.985939,1.414869 -5.783226,1.880024 -7.860461,5.137482 6.305922,-5.143727 10.273615,-2.698698 15.428798,-3.619566 1.443511,-0.257829 2.888041,-0.490732 4.333715,-0.696413 3.707508,-0.527445 7.422636,-0.876297 11.147009,-1.009615 19.114733,-0.684294 38.473879,4.306365 58.290669,19.941835 C 120.12943,63.318398 113.80455,60.434719 108.89318,56.676505 101.83252,51.273648 95.806002,47.567373 88.081069,46.15835 83.595832,45.340232 78.61766,44.899171 73.517595,44.89513 Z m 52.530775,25.316722 c 0,0 0,0 0,0 v 0 c 0,0 0,0 0,0 z M 69.922991,51.031182 c -5.174368,0.0049 -10.316156,0.395531 -15.434993,1.058563 4.597674,0.407575 6.782412,1.076066 6.554152,2.005378 -0.228252,0.929266 -2.869518,2.119519 -7.923665,3.570568 7.290976,-1.021707 14.682496,-2.687838 22.166009,-3.004106 7.966353,-0.336647 16.037158,0.08026 24.202119,1.17802 -7.21953,-2.498962 -14.346351,-3.899022 -21.404351,-4.482125 -2.7296,-0.225502 -5.448911,-0.328826 -8.159271,-0.326298 z m 12.760066,4.328742 c -7.888331,-0.0044 -16.944057,0.888372 -24.419826,2.277593 -6.496405,1.207243 -13.919251,2.267685 -14.106939,4.483316 2.597542,-2.691952 8.725442,-1.534046 13.103807,-2.063774 11.012812,-1.3322 22.097069,-1.582185 33.293117,-0.137446 10.570664,1.363956 21.241144,4.238694 32.045254,9.139349 0.86646,0.393049 2.43476,1.223004 3.30302,1.642298 -1.47147,-1.229242 -3.42975,-2.48367 -4.88215,-3.423009 -2.67886,-1.732599 -5.54562,-3.255205 -8.2254,-4.642571 -7.05107,-3.650509 -14.221744,-6.019731 -21.847221,-6.868139 -2.49158,-0.277182 -5.294953,-0.405944 -8.263662,-0.407617 z m -7.594159,4.288121 c -5.395988,0 -10.858745,0.327177 -16.361979,0.854519 5.947644,0.893823 10.439092,2.59326 11.608307,4.695534 0.70149,1.261338 0.0838,2.785059 -2.47817,4.69546 5.016471,-1.831845 10.270237,-3.055931 15.428883,-4.136032 6.141575,-1.285968 12.243753,-2.272673 18.972251,-2.515976 -8.768618,-2.614889 -17.869803,-3.592248 -27.169292,-3.593505 z m 48.929572,4.861438 c -0.0465,-5.6e-5 -0.0936,0 -0.14145,0.0038 2.78618,2.601035 3.80572,5.582656 0.93864,9.40145 -0.39351,0.321702 -0.45089,0.806026 -0.8289,1.152005 -2.04149,1.868371 -4.25287,3.835546 -6.72641,5.02517 -2.31057,1.11132 -8.92543,3.901929 -5.51337,4.507734 h 3e-5 c 1.29685,-0.21144 2.65091,-1.672123 4.02835,-2.489054 2.27001,-1.346238 4.64826,-2.671359 7.20384,-4.041253 0.48555,-0.260289 0.76505,-0.707967 1.1047,-0.988865 2.07587,-1.716871 3.10428,-1.746161 3.43829,-2.479355 0.31575,-0.6933 -0.04,-1.695927 -0.0119,-2.702527 0.0248,-0.888235 0.14664,-1.911084 0.27847,-2.943137 0.0948,-0.742227 -0.42061,-1.55162 -1.08714,-2.377789 -0.32551,-0.403465 -0.55696,-1.323378 -1.03125,-1.216592 -0.41273,-0.550618 -0.95494,-0.850568 -1.65191,-0.851586 z m -23.39204,0.100264 c -4.592534,0.0023 -9.371406,0.603244 -13.854323,1.3704 -3.036046,0.519534 -6.079181,1.228823 -9.127904,2.114319 -4.755967,1.381423 -13.210306,2.181022 -14.303399,5.380434 2.66884,-2.217225 7.223826,-1.78561 10.826906,-2.502444 7.926903,-1.577146 15.823904,-2.557822 23.681571,-2.751847 9.175779,-0.226683 18.297949,0.619031 27.351259,2.83988 -3.08867,-2.042952 -6.79528,-2.920696 -10.23242,-3.881477 -3.54734,-0.991519 -6.59879,-2.061569 -10.19031,-2.390112 -1.35711,-0.124174 -2.74553,-0.17976 -4.15138,-0.179153 z m -2.539923,4.220356 c -7.617259,0.01018 -15.797707,1.095811 -24.229601,2.661212 v 0 c 4.137699,0.327949 6.704593,1.74458 7.774891,3.140551 0.832425,1.085797 0.601831,2.415534 -1.025096,4.065763 8.612204,-3.883173 10.76824,-5.954554 16.62095,-7.552058 3.283249,-0.896214 6.672959,-1.479114 10.182579,-1.708532 -2.99187,-0.423887 -6.10763,-0.611283 -9.323816,-0.606936 z M 114.261,70.619189 c -1.40988,0 -2.79536,0.03151 -4.12002,0.04655 -3.6632,0.04166 -7.11842,0.07731 -10.572881,0.786949 -4.66231,0.957674 -7.881296,3.607659 -12.230647,4.920404 -1.960354,0.5917 -4.897769,1.922987 -7.420768,3.073439 -2.090536,0.953174 -3.98855,1.741323 -3.982075,2.25014 8.155256,-3.254654 16.328863,-5.906329 24.502421,-7.633801 8.17364,-1.727492 16.34724,-2.53081 24.50248,-2.088864 -3.31322,-1.16089 -7.07549,-1.356516 -10.67851,-1.354826 z m 4.47137,2.087238 c -13.67182,-0.02642 -26.483654,3.122938 -38.229117,8.22389 1.213554,0.321285 3.502675,1.598318 4.2649,2.335431 1.937606,1.873738 2.754054,4.368178 2.821919,7.022343 0.118196,4.622937 -1.933278,9.744329 -4.408997,12.851759 -0.825282,1.03576 -1.828071,1.74644 -2.639484,2.27545 -1.255557,0.81854 -3.608823,2.13685 -6.199299,3.25933 -1.660532,0.71956 -3.193217,1.3889 -5.152139,1.80862 -5.338443,1.144 -11.435313,0.8281 -16.744571,0.0394 -6.38659,-0.94868 -15.844419,-4.63357 -12.073777,-10.881326 -2.052557,0.891506 -2.189011,3.635796 -1.808552,5.185286 0.381346,1.55306 1.514123,3.18013 3.15421,4.32842 2.476303,1.73383 5.942647,2.71058 8.401245,3.34615 6.380006,1.64946 14.420653,0.38705 19.239365,-0.80564 6.921147,-1.71306 13.904946,-3.42549 20.224901,-10.57731 0.151304,-16.767416 12.388106,-25.731789 34.638386,-28.230615 -1.8445,-0.118248 -3.67431,-0.177687 -5.48899,-0.181194 z m 5.48899,0.18119 c 0,2.4e-5 0,2.4e-5 0,4.7e-5 v 0 c 0,2.7e-5 0,2.7e-5 0,4.8e-5 z m 0.33229,0.248616 c -3.13774,0.313556 -6.11137,0.754087 -8.90449,1.334661 -8.6476,1.911263 -17.344814,5.612806 -22.106642,12.987848 -2.379742,3.685689 -3.486868,7.831215 -3.723541,12.146843 3.385233,-2.48406 7.093372,-4.064835 11.251493,-4.731345 2.42266,-0.388337 4.89009,-0.448654 7.33492,-0.27122 2.81046,0.204004 5.60294,0.718341 8.33053,1.42204 l 0.68424,-0.0044 c 0.22677,-0.0023 0.50634,-0.04148 0.65111,-0.238107 0.21349,-0.289948 0.0842,-0.835988 -0.0106,-1.147223 -0.18265,-0.599696 -0.49517,-1.210628 -0.79959,-1.757576 -0.32845,-0.590181 -0.6877,-1.162048 -1.052,-1.73058 -0.93914,-1.465765 -2.07283,-2.800911 -2.99891,-4.275475 -0.16372,-0.260774 -0.34493,-0.526267 -0.49081,-0.796696 -0.0216,-0.04023 -0.0426,-0.08137 -0.0623,-0.123099 -0.31111,-0.388987 -0.61984,-0.777365 -0.92174,-1.164024 l -0.0206,-0.0034 c -0.37823,-0.06719 -1.01312,-0.217397 -1.10314,-0.668072 -0.10829,-0.541742 0.69179,-1.110458 1.06877,-1.369519 0.76338,-0.524711 1.63798,-0.975053 2.4675,-1.386878 1.00317,-0.497997 2.0235,-0.951708 3.03179,-1.436659 1.51173,-0.727053 2.91018,-1.73465 4.22847,-2.828536 1.28733,-1.211027 2.36853,-2.515612 3.14549,-3.958467 z m -3.07296,6.409204 c -3.12003,1.295737 -5.77854,2.952934 -7.96819,4.937886 -1.09013,0.98815 -0.9421,1.017555 -0.14391,2.288616 0.89406,1.423642 2.08575,2.850325 2.99801,4.274111 1.10737,1.728378 3.25394,5.148278 1.05443,5.161943 1.80371,0.581272 0.96062,-1.515109 0.43124,-3.981026 -0.38632,-1.799463 -0.34988,-3.891549 -0.0725,-5.067619 0.65748,-2.78796 1.86948,-5.206369 3.70095,-7.613911 z m -65.14627,3.445455 c -1.683701,0.0034 -3.364577,0.167959 -5.116167,0.725814 -1.225594,0.390282 -2.94231,0.582009 -3.805836,1.828543 3.939917,-1.725106 7.290446,-1.681676 10.593922,-1.239524 1.399989,0.187345 2.824276,0.250915 4.248774,0.477336 1.107958,0.176115 2.203277,0.528194 3.370321,0.615857 4.712283,0.353894 9.523103,0.858151 14.393531,1.555167 2.166394,0.310097 4.345334,0.650454 6.533738,1.014237 -0.105331,-0.45028 -0.239817,-0.883454 -0.40355,-1.298638 -2.308912,-0.331799 -4.657049,-1.057522 -7.016642,-1.501695 -2.082045,-0.391932 -4.173141,-0.499807 -6.254128,-0.849751 -3.344934,-0.562523 -6.664239,-0.992515 -9.879085,-1.037799 -2.330626,-0.03284 -4.500118,-0.294148 -6.664878,-0.289547 z m 79.92096,0.676208 c 0.2588,0.240498 0.51242,0.483545 0.75944,0.729624 1.37707,1.053674 2.60345,2.29039 3.69922,3.636722 0.0226,-0.02666 0.0497,-0.04852 0.0805,-0.06563 -1.45686,-1.828869 -2.86102,-3.299975 -4.53918,-4.30071 z m -0.45175,0.100574 c 1.52415,1.416355 2.86749,2.918836 3.75825,4.636929 0.0152,-0.0031 0.0309,-0.0053 0.0475,-0.0065 l 0.0716,-0.0053 0.0568,0.044 c 0.1076,0.08341 0.48739,0.404835 0.62863,0.375221 0.0488,-0.0102 0.13465,-0.229054 0.15897,-0.293852 0,-0.01883 -0.002,-0.04415 -0.004,-0.06153 -0.005,-0.09926 0,-0.196811 0.0714,-0.274608 v 0 c -1.52009,-1.873551 -3.12106,-3.322601 -4.78984,-4.414452 z m -6.12165,1.101219 c 2.1318,1.097068 3.76868,2.599874 3.41089,3.114071 -0.22933,0.329618 -1.49034,0.0044 -3.76196,-0.08845 0.82669,0.557085 1.17394,0.938714 1.1904,1.199463 0.0455,0.720597 -2.56199,-0.137183 -4.29959,0.539033 1.36895,0.359532 1.84664,0.954563 1.81366,1.364786 -0.0162,0.203426 -0.1808,0.3965 -0.4807,0.58004 -0.38561,0.235988 -1.12047,0.271983 -1.80096,0.662871 0.73397,0.39467 0.81509,0.722523 0.55606,1.015466 -0.26715,0.302133 -1.02849,0.401121 -1.685,0.653357 0.38647,0.196535 0.76396,0.405855 1.12864,0.630125 l 0.0106,0.0065 c 0.17752,-0.253356 0.3523,-0.519137 0.52975,-0.794684 0.12489,-0.193811 0.2492,-0.387998 0.37556,-0.580941 0.63092,-0.962663 1.43521,-1.910988 2.40039,-2.54937 1.50194,-0.99353 3.30168,-1.325075 5.02019,-1.745833 1.36998,-0.335348 2.71586,-0.320887 4.02615,0.165597 l 0.004,0.0023 c -0.14957,-0.17154 -0.30556,-0.335141 -0.4764,-0.49169 l -0.89681,-0.821874 1.10258,0.513891 0.0221,0.01069 0.0227,0.01091 0.003,0.0023 0.0166,0.0081 0.004,0.0023 0.0135,0.0068 0.0125,0.0063 0.004,0.0023 0.0228,0.01161 h 0.002 0.002 l 0.0135,0.007 0.007,0.0038 0.0204,0.01042 0.0206,0.01091 0.018,0.0095 0.004,0.0023 0.0353,0.01923 0.004,0.0023 0.006,0.0034 0.002,0.0023 0.0265,0.01462 0.0176,0.01 h 0.002 l 0.009,0.0051 0.0371,0.02132 0.002,0.0023 0.005,0.0034 0.0145,0.0083 0.0124,0.0074 0.0269,0.016 c 0.0269,0.01623 0.0536,0.03245 0.0802,0.04906 0.0267,0.01648 0.0531,0.03347 0.0794,0.05057 0.0177,0.01142 0.0351,0.02299 0.0526,0.03449 l 0.0263,0.01739 0.002,0.0023 0.0197,0.01319 0.005,0.0031 0.015,0.01 0.0113,0.0076 0.0261,0.01785 0.008,0.0056 c 0.075,0.05179 0.14915,0.105045 0.22242,0.159446 0.0507,0.03759 0.10092,0.07578 0.15088,0.114262 0.0242,0.01856 0.0484,0.03755 0.0726,0.05636 l 0.002,0.0023 0.004,0.0023 0.005,0.0038 0.005,0.0038 0.0274,0.02164 0.009,0.0072 0.0247,0.01947 0.004,0.0031 c -0.95591,-1.305094 -2.09528,-2.435885 -3.57519,-3.243257 1.07385,1.257539 1.28479,1.786728 1.00142,1.943293 -0.65278,0.360875 -1.77836,-1.06873 -3.54971,-1.766789 -1.10555,-0.435677 -2.25328,-1.015975 -3.3024,-1.129331 z m -64.204356,1.649998 c -0.911124,0 -1.812521,0.01672 -2.702547,0.05684 -3.107008,0.140159 -8.464627,-0.182451 -8.895557,1.254821 1.965888,-0.416884 6.047497,-0.655261 8.885627,-0.552864 1.596379,0.05758 3.371621,0.1943 4.866023,0.480489 1.162351,0.222582 2.038991,0.600121 3.27671,0.686295 1.886232,0.13132 3.770338,0.28357 5.652305,0.456547 3.431338,0.315363 6.855492,0.699848 10.271638,1.152352 -0.02327,-0.521068 -0.0772,-1.025424 -0.16234,-1.511695 C 84.131339,88.138306 81.619757,87.78755 79.143002,87.504838 74.48323,86.97298 69.867539,86.524627 65.477624,86.518893 Z m 75.506726,1.58924 c -0.1345,0.0023 -0.16421,0.08021 -0.16088,0.183535 -0.18244,-0.0368 -0.0866,0.19408 -0.11789,0.279486 -0.094,0.256209 -0.17507,0.398037 -0.30081,0.424401 -0.21571,0.04516 -0.47728,-0.174578 -0.78178,-0.410499 -0.11613,0.0084 -0.17008,0.118015 -0.19984,0.266948 -0.0278,0.139115 0.022,0.317572 0.0106,0.475716 l 0.0616,0.05071 c 0.08,0.06568 0.15648,0.134382 0.22811,0.207046 0.27689,0.156295 0.51222,0.377314 0.73146,0.367939 0.23455,-0.467898 0.63921,-0.655338 1.10421,-0.677986 -0.0165,-0.08892 -0.0212,-0.176715 -0.0353,-0.272126 -0.0461,-0.313951 -0.24417,-0.624694 -0.45358,-0.887701 -0.0325,-0.0053 -0.061,-0.0076 -0.0859,-0.0074 z m 1.37851,0.05365 c 0.19297,0.651105 0.28452,1.153114 0.20606,1.405098 -0.0262,0.08395 -0.12732,0.02252 -0.23387,-0.03687 0.21983,0.306293 0.4725,0.54801 0.73278,0.828096 0.11407,0.122733 0.22299,0.248992 0.32153,0.384696 0.18274,0.251512 0.30209,0.52828 0.45597,0.795069 0.15356,0.266255 0.33653,0.481312 0.40898,0.789202 0.0333,0.14155 0.0534,0.282805 0.0603,0.423634 l 0.1481,0.293618 c 0.0459,0.09103 0.0936,0.17952 0.14308,0.266231 0.0944,-0.69165 0.33941,-1.364182 0.26685,-2.005586 -0.19346,0.761723 -0.35717,0.998526 -0.5017,0.903109 -0.36965,-0.243993 0.0791,-2.675212 -0.92056,-4.0296 0.23228,1.268049 0.0336,1.916442 -0.11602,1.979334 -0.32432,0.136292 -0.23862,-1.413965 -0.97152,-1.996042 z m -4.593,0.251421 c 0.69221,0.634395 0.95715,1.172866 1.42239,1.584642 0.21153,0.187206 0.40737,0.345699 0.5687,0.468962 0.16736,0.127833 0.28786,-0.02164 0.20081,-0.217948 -0.12851,-0.290006 -0.33756,-0.521913 -0.58544,-0.725685 -0.49,-0.402676 -1.03182,-0.842118 -1.60646,-1.109971 z m -1.89146,0.422131 c -0.57572,0.0023 -1.15582,0.08104 -1.73967,0.22396 -1.47751,0.36169 -3.44694,0.718298 -4.96136,1.720071 -0.90703,0.599929 -1.70155,1.510905 -2.34703,2.495826 -1.1506,1.755719 -2.15591,3.673788 -4.81678,3.965547 1.0528,0.276188 1.74498,0.831463 2.30685,1.487722 -0.53025,-0.280318 -1.01867,-0.703166 -1.59067,-0.840979 -0.48314,-0.116417 -0.87863,-0.464648 -1.31792,-0.696923 0.24246,0.358001 0.37625,0.734123 0.35102,1.136756 -0.31676,-0.549871 -0.67299,-1.094099 -1.05408,-1.634703 -0.68189,-0.96735 -1.59787,-1.804296 -2.27398,-2.823682 0.064,0.274194 0.12387,0.548498 0.1752,0.823503 0.0848,0.454689 0.22893,1.271921 -0.16149,1.626377 -0.2876,0.261234 -0.73118,0.179356 -1.06776,0.07271 1.18038,1.393982 2.65329,2.4512 4.54084,2.534147 l 0.0465,0.0023 0.0402,0.02365 c 0.84764,0.498601 1.42776,1.258135 1.81289,2.153945 0.39521,0.7578 0.86065,1.65889 1.12603,2.58006 0.8022,-1.82813 1.73138,-3.48956 2.78772,-4.960417 1.07818,-1.501295 2.28859,-2.803319 3.63143,-3.88078 0.1352,-0.108497 0.26038,-0.210106 0.38644,-0.312413 1.64106,-1.332249 3.42072,-2.776611 5.86918,-2.366114 -0.0697,-0.111107 -0.13694,-0.223968 -0.20486,-0.335974 l -0.30824,-0.508604 0.54414,0.240049 c 0.24803,0.109455 0.48734,0.247108 0.69697,0.419363 l 0.0707,0.01 c 0.0322,0.0044 0.0903,0.0091 0.11808,-0.01392 0.16469,-0.135214 -0.0496,-1.016903 -0.0923,-1.194499 v -0.003 c -0.0732,-0.06471 -0.14597,-0.13002 -0.21948,-0.194587 -0.39209,-0.344256 -0.86337,-0.606542 -1.27314,-0.936628 0.65868,0.03789 1.42008,0.181686 1.96768,0.59332 -0.0128,-0.09822 -0.0297,-0.200272 -0.0456,-0.290202 -0.18015,-0.190158 -0.33973,-0.400312 -0.5032,-0.604832 -0.82071,-0.356141 -1.65281,-0.514521 -2.49428,-0.510764 z m 1.74362,3.330211 c 0,0 0,0 0,0 v 0 c 0,-4.4e-5 0,0 0,0 z m 4.01902,-2.705757 c -0.49747,0.0034 -0.86403,0.202172 -1.05674,0.660091 -0.18771,0.05747 -0.36062,-0.006 -0.53096,-0.104648 0.0289,0.05081 0.0554,0.103253 0.0796,0.157731 0.0725,0.163295 0.0675,0.380115 -0.0996,0.484853 -0.12658,0.07933 -0.27407,0.04368 -0.38626,-0.04209 -0.18711,-0.142875 -0.36927,-0.293015 -0.54625,-0.44842 0.0132,0.08979 0.0227,0.175155 0.0267,0.252974 0.0891,0.08929 0.1695,0.188158 0.23932,0.29801 0.0958,0.150531 0.20726,0.404414 0.0348,0.546826 -0.12184,0.100653 -0.27533,0.04702 -0.39056,-0.03158 -0.1132,-0.07722 -0.22066,-0.160721 -0.32547,-0.247713 0.1328,0.609747 0.17588,1.11023 -0.13001,1.18566 0.0791,0.08353 0.15145,0.173554 0.21559,0.270919 0.0763,0.11574 0.12829,0.256529 0.0991,0.396287 -0.0269,0.128559 -0.12168,0.232417 -0.25281,0.256787 -0.0835,0.01553 -0.16863,-0.0048 -0.23747,-0.05405 -0.0575,-0.04127 -0.11196,-0.08508 -0.16388,-0.131315 -0.0332,0.360178 -0.0124,0.748236 0.0112,1.138004 0.86104,0.655102 1.55639,1.92763 2.48302,2.589667 0.45098,0.322212 0.89721,0.498996 1.37759,0.721223 0.32866,0.152039 0.63445,0.299189 1.01877,0.487437 1.01362,0.496531 2.28068,1.359466 3.21128,0.748443 -0.79458,-0.267092 -1.53612,-0.706478 -2.24218,-1.260575 -0.65425,-0.513428 -1.06914,-1.486028 -1.67673,-2.15092 -0.39801,-0.435653 -1.06826,-0.706644 -1.5153,-1.073257 -0.32628,-0.267505 -0.89612,-0.831164 -0.71737,-0.964659 0.23976,-0.104786 0.28205,0.190618 0.48376,0.461904 0.17373,0.233603 0.50582,0.433152 0.71699,0.533322 0.29302,0.139069 0.53598,0.267626 0.79207,0.421311 0.1641,0.0985 0.33307,0.205589 0.46825,0.374413 0.38883,0.485627 0.62687,1.212968 1.03907,1.73065 0.78688,0.988191 1.73719,1.406673 3.06928,1.861017 0.42227,-0.724913 -0.15922,-1.793105 -0.54684,-2.665375 -0.41259,-0.928595 -1.23516,-1.428582 -1.89364,-2.733906 -0.0402,0.191775 -0.11551,0.338085 -0.26747,0.384436 0.12696,-0.403557 0.12892,-0.782166 0.044,-1.143208 -0.0649,-0.276145 -0.23941,-0.47934 -0.3889,-0.738467 -0.14205,-0.246294 -0.266,-0.531811 -0.44528,-0.778569 -0.34232,-0.471258 -0.77198,-0.767569 -1.14883,-1.351627 -0.15887,-0.02828 -0.30841,-0.04256 -0.44772,-0.04162 z m -3.4249,3.450355 c 0,0 0,-2.5e-5 0,-2.5e-5 h -4e-5 c 3e-5,0 3e-5,2.5e-5 4e-5,2.5e-5 z m -0.63874,-3.013324 c 0.5593,0.25922 0.98754,0.80547 1.53938,1.181869 0.20617,0.140602 0.24999,-0.01159 0.092,-0.259847 -0.37891,-0.595659 -1.08222,-0.712382 -1.63138,-0.922022 z m -61.671556,0.271166 c -2.439701,0 -4.755789,0.121801 -6.935787,0.43819 -1.174454,0.170518 -2.748162,0.436681 -3.982932,0.715532 -0.960335,0.216869 -1.608107,0.278809 -1.890387,0.777717 0.312119,-0.04046 0.623451,-0.144456 0.936893,-0.116815 1.305344,0.115068 3.380867,-0.359997 5.079013,-0.478499 2.941617,-0.205241 5.898255,-0.292293 8.866559,-0.286559 2.936963,0.0058 5.885608,0.102744 8.842534,0.266042 0.01432,-0.248107 0.02179,-0.49614 0.0235,-0.743918 -1.571327,-0.149632 -3.115764,-0.271503 -4.627529,-0.359695 -2.184116,-0.127422 -4.290466,-0.211735 -6.311923,-0.211995 z m 65.141926,0.503312 c 0.28966,0.149862 1.5803,0.941986 1.87396,1.978735 0.0629,-0.330264 0.0612,-0.315061 0.0756,-0.320582 0.31421,-0.184634 0.72004,-0.427468 0.81786,-0.481663 -0.0912,0.118084 -0.41906,0.500014 -0.54295,0.655769 -0.0225,0.184005 -0.14463,1.316373 -0.16572,1.505828 -0.0212,-0.02064 -0.0193,-0.05112 -0.0244,-0.07789 -0.1558,-0.917266 -0.74457,-1.729396 -1.44676,-2.339719 -0.1167,-0.09938 -0.23544,-0.197191 -0.36305,-0.282343 0.0779,0.143201 0.11104,0.308355 0.10318,0.470697 -0.004,0.05543 -0.19389,0.530912 0.0704,0.92372 0.0117,0.01761 0.0256,0.03419 0.0413,0.04851 -0.10948,-0.341686 -0.0714,-0.537241 0.0348,-0.750601 0.0455,-0.08813 0.0459,-0.190247 0.0419,-0.286952 0.0883,0.07939 0.17258,0.163181 0.26269,0.240534 -0.17799,0.145237 -0.21362,0.457609 -0.1991,0.512108 0.0696,0.295523 0.23083,0.531626 0.53559,0.541792 0.1309,0.0034 0.26573,-0.02561 0.37771,-0.09511 0.16301,0.241652 0.25756,0.521742 0.32471,0.803336 -0.0957,-0.0065 -0.67376,-0.110199 -1.19574,-0.424121 -0.41836,-0.254491 -0.73188,-0.606572 -0.84859,-1.084208 -0.018,-0.06928 -0.0321,-0.139493 -0.0456,-0.209742 -0.0169,-0.08834 -0.0295,-0.177364 -0.0455,-0.265815 0.028,0.07248 0.11542,0.310098 0.16462,0.375451 0.0246,-0.300254 0.12281,-1.18688 0.15318,-1.43773 z m -3.47032,1.061185 c 0.26237,0.433016 0.51117,0.869158 0.91187,1.156746 0.12009,0.08608 0.30852,-0.06585 0.12551,-0.343686 -0.25399,-0.385524 -0.64999,-0.642144 -1.03738,-0.81306 z m -19.0434,0.0804 c 0.0165,0.08789 0.0335,0.173623 0.0514,0.256901 0.061,0.284334 0.12889,0.568342 0.19784,0.852166 2.09607,0.600903 4.22882,1.690015 6.43593,2.347963 0.15077,-0.180057 0.29642,-0.370139 0.43955,-0.56862 -2.03248,-1.249711 -4.68195,-2.124878 -7.12474,-2.88841 z m -45.818015,0.05832 c 5.169028,0.722711 8.245263,1.907391 6.71717,4.108537 2.408087,-0.440069 4.758193,-0.476813 6.637607,-0.351015 0.02413,-0.08151 0.04786,-0.163068 0.07082,-0.244667 0.29523,-1.044227 0.515902,-2.127183 0.625864,-3.217034 -4.414811,-0.437771 -9.466211,-0.07304 -14.051495,-0.295824 z m 69.269805,0.246806 c 0.0996,0.119802 0.36669,0.450909 0.43054,0.597311 l -0.002,0.0044 c -0.13598,0.08309 -0.33225,0.09123 -0.45409,-0.03313 -0.0622,-0.06068 -0.0996,-0.141368 -0.12743,-0.222436 -0.013,-0.03724 0.03,-0.257035 0.14647,-0.345581 z m -5.17295,0.164185 c -1.98042,-0.0102 -3.51515,1.235488 -4.94298,2.394564 -0.13331,0.108129 -0.26599,0.215867 -0.3871,0.313136 -1.33003,1.067176 -2.52898,2.356948 -3.59709,3.844183 -1.08928,1.516665 -2.04325,3.240225 -2.86215,5.144025 0.15052,0.63226 0.19418,1.26775 0.0437,1.86731 -0.23024,0.9175 -0.85955,1.59017 -1.63037,2.10279 l -0.0711,0.0473 -0.0853,-0.0234 h -2e-5 l -0.005,0.013 c -0.23872,0.67227 -0.46672,1.42789 -0.88492,2.03116 2.4734,-1.2185 3.43828,-3.49298 4.18497,-5.9203 0.86129,-2.58432 2.01001,-4.576428 3.38873,-6.094086 1.66411,-1.831729 2.74409,-3.507324 5.89761,-3.629175 -0.38763,-0.363197 -0.90914,-0.525224 -1.36363,-0.78788 1.93391,0.303179 3.6561,1.976625 5.01414,2.131796 -0.0445,-0.05301 -0.0884,-0.106016 -0.13186,-0.158634 -0.37953,-0.459002 -0.79254,-0.999864 -1.26702,-1.360855 l -0.0683,-0.05196 -0.005,-0.08576 c -0.0254,-0.416625 -0.0542,-0.880323 0.006,-1.31695 -0.10914,-0.119317 -0.20681,-0.248567 -0.29811,-0.382925 -0.0176,0.0086 -0.0378,0.01185 -0.0585,0.0079 -0.3021,-0.05663 -0.59412,-0.08374 -0.87704,-0.08523 z m -17.66969,2.209287 0.005,0.02399 c 0.29681,0.36505 0.61205,0.715441 0.91936,1.072138 1.33934,0.232488 2.67622,0.475904 4.00956,0.737236 0.0492,-0.0329 0.0975,-0.06666 0.14511,-0.101355 -1.64412,-0.769934 -3.34539,-1.315257 -5.07876,-1.731995 z m -13.40306,0.203749 c -6.62695,0.01787 -11.715902,2.022413 -15.933654,5.152222 -0.01992,0.42271 -0.03207,0.84704 -0.0358,1.27262 v 0.0294 c 2.099331,-1.373516 4.469096,-2.456312 6.927289,-3.235346 2.763735,-0.875839 5.641385,-1.368218 8.373705,-1.458733 1.13027,-0.03737 2.26584,0.03264 3.40782,0.236243 1.14326,0.203868 2.29442,0.541444 3.45475,1.038788 0.0195,0.0083 0.0373,0.02138 0.0514,0.03926 0.52186,0.659582 1.09117,1.225644 1.69739,1.718703 0.60589,0.492701 1.24963,0.912715 1.9205,1.280345 0.0634,0.0348 0.0866,0.11454 0.0517,0.17788 -0.0347,0.0635 -0.11445,0.0866 -0.1778,0.0517 -0.68266,-0.37415 -1.33926,-0.8028 -1.95938,-1.307088 -0.61157,-0.497279 -1.1871,-1.068268 -1.71617,-1.733003 -1.13051,-0.481857 -2.25258,-0.809828 -3.36738,-1.00859 -1.12613,-0.200734 -2.24382,-0.269874 -3.35446,-0.233138 -2.70679,0.08961 -5.560108,0.578239 -8.302993,1.447479 -2.536043,0.803732 -4.97579,1.93264 -7.1157,3.37214 0.350316,0.4356 0.781589,-0.18323 0.954288,-0.39847 l -0.402235,6.14248 -0.05082,0.05 c -0.154775,0.15246 -0.311745,0.30266 -0.470427,0.45106 l -0.0098,0.009 v 0.003 c 0.132275,0.0414 0.265811,0.0963 0.401145,0.16564 l 0.06211,0.0318 0.368271,0.91188 0.362403,0.85831 c 0.106522,-0.0247 0.212811,-0.0491 0.318936,-0.0734 l 0.0078,-0.002 4.673143,-0.66516 c 1.051845,-0.72232 1.710996,-1.96059 2.09874,-3.55603 1.086002,0.52252 2.369909,-2.01334 4.212469,-2.44891 2.18097,-0.4823 4.64958,0.23304 7.18794,1.22863 2.31905,2.0341 4.53087,4.22463 7.65601,5.08174 l 0.0525,-0.0123 c 0.17995,-0.19531 0.40557,-0.36694 0.62282,-0.52365 0.0933,-0.0699 0.25921,-0.18189 0.29875,-0.29817 0.0479,-0.14057 0.055,-0.3078 0.0571,-0.45526 0.003,-0.20291 -0.004,-0.40472 0.006,-0.60776 0.0283,-0.54912 0.18055,-1.00149 0.56491,-1.4077 l 0.13954,-0.14748 0.1359,0.15087 c 0.88029,0.97769 2.01636,2.04309 3.4124,2.06157 0.18566,-0.2971 0.44621,-0.44949 0.82731,-0.34497 l 0.18412,0.0504 c 0.89889,-0.59775 1.37101,-1.26976 1.55233,-1.99232 0.35268,-1.40509 -0.39328,-3.00129 -1.23435,-4.61403 -0.40111,-0.93602 -0.98062,-1.626978 -1.73849,-2.072827 -1.90001,-0.08351 -3.48244,-1.119974 -4.84783,-2.808247 -4.22599,-1.119253 -7.97205,-1.618623 -11.3245,-1.609543 z m -52.233008,0.494561 c -1.33565,-0.0069 -2.496686,0.461515 -3.589437,1.115964 0.793785,-0.0396 1.590332,-0.03903 2.379727,-0.0048 0,0 0,-2.3e-5 0,-2.3e-5 -0.03775,-0.0023 -0.07549,-0.0034 -0.113239,-0.0048 v -2.2e-5 c 0.03316,-0.01553 0.0667,-0.03072 0.100367,-0.04569 -0.07926,-0.395784 0.391993,-0.749394 1.565987,-1.048745 -0.115768,-0.0076 -0.230198,-0.01161 -0.343405,-0.01207 z m -1.222582,1.060909 c 0.0039,0.01672 0.0078,0.03347 0.01276,0.05034 0.04483,0.0023 0.08972,0.0038 0.134533,0.0063 0.643173,0.0312 1.285676,0.08525 1.92583,0.161186 -0.0039,-0.3045 0.375587,-0.504958 1.054272,-0.623926 -1.352732,-0.15274 -2.323979,0.04892 -3.1275,0.406228 z m -3.964596,-1.048769 c -1.268142,0.309189 -2.202117,0.943164 -2.949594,1.757804 0.648169,-0.15283 1.302075,-0.271917 1.933332,-0.371483 -0.153802,-0.243627 -0.109168,-0.608376 1.016262,-1.386321 z m 2.521303,0.05695 c -1.567949,0.252466 -2.675884,0.696668 -3.387537,1.306021 0.152269,-0.02336 0.303052,-0.04578 0.451982,-0.06724 0.610914,-0.08796 1.228708,-0.147959 1.848618,-0.18323 -0.130407,-0.304201 0.33191,-0.672368 1.086937,-1.055548 z m 74.044513,0.10472 c -0.38776,0.100213 -0.99884,0.112589 -1.66045,0.220321 0.36223,0.147169 0.72102,0.303528 1.07608,0.469818 l 0.0882,0.04128 c 0.24903,-0.199437 0.47846,-0.424263 0.69579,-0.669747 -0.0666,-0.02019 -0.1331,-0.04079 -0.19958,-0.06169 z m -79.477462,0.513408 c -1.208495,0.421522 -2.147412,1.112868 -2.836628,2.053738 0.571806,-0.289458 1.192845,-0.522733 1.834033,-0.714627 -0.220197,-0.31441 0.09906,-0.749556 1.002595,-1.339111 z m 74.969832,0.07867 c 0.1679,0.204221 0.33047,0.41268 0.48295,0.62906 0.0384,0.05447 0.0767,0.109128 0.11475,0.163926 l 0.52268,0.276395 c 0.0416,0.02203 0.0833,0.04544 0.12514,0.06991 l 0.36863,-0.04042 c 0.73458,-0.08056 1.33553,-0.2847 1.85137,-0.584398 -0.15735,-0.03064 -0.31477,-0.06107 -0.47224,-0.09122 0.01,0.03855 0.005,0.07169 -0.0128,0.09991 -0.0827,0.131525 -0.6635,0.318148 -1.30638,0.102055 -0.50624,-0.170172 -1.14997,-0.502201 -1.67415,-0.625232 z m 2.99328,0.423263 c 0,0 0,-2.2e-5 0,-2.2e-5 v 0 c 2e-5,2.2e-5 4e-5,2.2e-5 0,2.2e-5 z m 22.59679,-0.155288 c 0.0318,0 0.063,0.01091 0.0882,0.03536 0.21615,0.209852 0.20288,0.536987 0.22588,0.800456 0.0108,0.124102 -0.0932,0.132222 -0.10458,0.0083 -0.0247,-0.270622 -0.19915,-0.470149 -0.34721,-0.616107 -0.0994,-0.09799 0.0239,-0.229005 0.13767,-0.228146 z m -89.555059,0.0074 c -0.60577,0 -1.17215,0.106528 -1.714265,0.279272 0.724394,0.09483 1.445379,0.21754 2.160169,0.367005 0.09951,-0.199293 0.440627,-0.340452 1.261417,-0.366587 -0.606749,-0.195654 -1.172391,-0.279439 -1.707321,-0.27969 z m -1.714265,0.279272 c 0,-5.9e-5 0,0 -0.0016,0 v 0 c 0,0 0,0 0.0016,0 z m 31.16984,-0.233843 c -4.044875,0.02495 -8.36978,0.336324 -10.941709,1.356432 -0.751291,0.297934 -1.889874,0.420568 -1.754517,1.085882 0.190677,-0.179736 0.581106,-0.353611 0.858965,-0.416974 0.21615,-0.0493 0.400679,0.140059 0.617125,0.10741 0.218181,-0.03294 0.283268,-0.106279 0.514166,-0.126999 0.411722,-0.03687 0.996626,-0.013 1.394939,-0.05269 1.273481,-0.126933 2.512002,-0.249777 3.845005,-0.308824 1.580402,-0.07001 3.201094,-0.07807 4.862848,-0.02184 0.222104,-0.5348 0.423762,-1.076943 0.603178,-1.622353 z m -34.673433,0.299347 c -1.190455,-0.0023 -2.282839,0.07977 -3.247027,0.21861 -1.610699,0.231905 -3.92453,0.631193 -5.610496,1.603066 -1.53495,0.884801 -2.524517,2.275126 -2.47933,3.847316 0.02382,0.8287 0.444573,1.72739 1.228092,2.76724 -0.846217,-4.72986 4.431925,-6.428644 8.438524,-6.906708 5.232543,-0.624344 15.528915,1.816967 20.223648,5.374138 -6.394482,-5.315017 -13.394819,-6.895145 -18.553411,-6.903662 z m -8.617348,0.187649 c -1.106876,0.867204 -1.681958,1.752652 -1.951956,2.648267 0.43163,-0.501477 0.965689,-0.928103 1.547869,-1.265659 -0.115029,-0.304179 0.01969,-0.765109 0.404087,-1.382608 z m 15.689084,0.100235 c -0.336191,0 -0.64757,0.04315 -0.943376,0.115607 0.191751,0.04338 0.383276,0.08859 0.574085,0.135773 0.571899,0.141555 1.137688,0.299839 1.697119,0.474396 0.244152,-0.122682 0.54985,-0.166296 0.933002,-0.110291 -0.886765,-0.447356 -1.618988,-0.613601 -2.26083,-0.615485 z m 72.915941,0.04769 c -0.19668,0.215617 -0.38916,0.435686 -0.58065,0.654195 2.41081,1.458362 4.57257,3.132573 6.52187,4.990903 -2.38901,-1.73922 -4.76437,-3.203021 -7.12209,-4.315474 -0.41717,0.470285 -0.79745,0.968795 -1.1444,1.489416 2.70308,0.568368 5.4398,1.591248 8.21633,3.093548 -3.14779,-0.28115 -6.12586,-0.91135 -8.88168,-1.99799 -0.33022,0.59667 -0.62389,1.21441 -0.88573,1.84523 3.25493,0.31354 6.53068,0.58009 9.95127,0.52052 -3.18245,0.4556 -6.68148,0.38395 -10.23971,0.21327 v 0 c -0.0734,0.19714 -0.14383,0.3952 -0.21159,0.5939 4.05307,0.29796 8.06933,0.77667 10.83581,0.0118 1.17183,-0.32397 0.88955,-1.0775 0.26746,-1.67167 -2.16263,-2.06592 -4.30106,-4.060388 -6.72689,-5.427812 z m -70.629163,0.894501 c -0.08989,0 -0.180217,0.003 -0.270925,0.0076 0.400912,0.136029 0.798415,0.280433 1.192245,0.433147 0.279564,-0.04286 0.579152,-0.06555 0.898945,-0.06807 -0.58253,-0.259623 -1.191,-0.37416 -1.820265,-0.37272 z m 2.015495,0.64925 -0.556435,0.006 c 0.291332,0.119591 0.58046,0.243671 0.867589,0.372364 l 0.461508,-0.06937 z m 0.898587,0.649459 c 0.269843,0.128022 0.537802,0.259899 0.803661,0.395874 v 0 l 0.566894,-0.05295 -0.992244,-0.325391 z m 1.236918,0.622001 c 0.245366,0.130644 0.488997,0.264558 0.730861,0.401977 l 0.297479,-0.0793 -0.683231,-0.300928 z m 64.042513,0.17214 c -0.16145,0.249517 -0.31554,0.503917 -0.46252,0.762397 2.51359,0.98799 5.16214,1.57328 7.84273,1.87845 -2.34137,-1.18654 -4.80838,-2.10741 -7.38021,-2.640847 z M 82.419339,101.3286 c -0.750699,0 -1.477357,0.11639 -2.154424,0.35728 1.079115,-0.0192 2.084465,0.23167 2.983605,0.87598 0.256293,-0.34322 0.502165,-0.70096 0.737219,-1.07024 -0.52791,-0.10769 -1.052755,-0.16276 -1.5664,-0.16302 z m 7.969926,0.39004 c -7.732762,9.6385 -20.477871,11.95621 -34.824892,11.93442 v 0 c 4.826837,1.14829 10.205151,1.21168 14.970169,1.02339 4.819848,-0.19056 9.345587,-1.07278 13.38492,-3.09988 0.07394,-0.19706 0.149825,-0.39406 0.259445,-0.57449 0.277213,-0.56456 0.677261,-0.7441 1.25955,-0.84831 0.148393,-0.0266 0.30418,-0.0496 0.447313,-0.0977 0.114126,-0.0381 0.213519,-0.0913 0.299495,-0.17665 0.195697,-0.19417 0.356698,-0.45705 0.500679,-0.69125 0.237801,-0.38701 0.50724,-0.8608 0.89524,-1.11264 0.6428,-0.41707 1.296876,-0.59602 1.982691,-0.43111 0.156729,-0.14655 0.312547,-0.29566 0.466909,-0.44775 z m 11.782035,1.49459 c -0.50596,0.13341 -0.96609,0.43603 -1.37177,0.75909 -0.14835,0.11817 -0.2916,0.24169 -0.43288,0.36728 -0.0994,0.11344 -0.19505,0.22976 -0.28666,0.34682 l -0.002,0.003 c 0.71553,0.6774 1.30617,1.40186 1.77176,2.17332 0.48419,0.80228 0.83338,1.65552 1.04741,2.55959 0.009,0.0397 -0.008,0.0791 -0.0407,0.0999 v 2e-5 c -0.40459,0.25997 -0.69466,0.55059 -0.84341,0.87868 -0.14651,0.32312 -0.15682,0.68723 -0.005,1.09996 0.006,0.0153 0.007,0.0311 0.005,0.0462 -0.0761,0.54827 -0.26088,1.06046 -0.56535,1.53261 -0.30036,0.46575 -0.71722,0.89213 -1.26111,1.27544 -0.15143,0.27523 -0.275807,0.54894 -0.339975,0.81867 -0.06382,0.26837 -0.06763,0.53313 0.02265,0.7918 0.0039,0.0114 0.0054,0.0232 0.0054,0.0346 0.546295,0.0438 1.156155,-0.0348 1.829935,-0.23633 -0.22792,-0.21271 -0.53939,-0.53447 -0.39923,-0.7304 0.85682,-1.1976 3.62955,-2.62989 3.3904,-3.45022 v 0 c -0.008,-2.21067 -0.40203,-4.30576 -1.25244,-6.21486 -0.33714,-0.75688 -0.82562,-1.43799 -1.27107,-2.15503 z m -23.232345,0.21517 c -0.717483,0 -1.391795,0.0361 -1.902934,0.11999 1.019772,-0.0181 2.808105,0.42646 3.508816,1.50611 0.641647,-0.42679 1.245401,-0.88083 1.785982,-1.41655 -0.880259,-0.11843 -2.196039,-0.21125 -3.391864,-0.20955 z m 21.015953,1.40193 c -0.268808,0.28027 -0.672747,0.5555 -1.060748,0.71402 -0.217543,0.118 -0.451601,0.19535 -0.687791,0.17551 -0.03331,-0.003 -0.06639,-0.008 -0.09886,-0.0142 -0.241786,0.92389 -0.610579,1.8502 -1.201125,2.59748 0.824783,1.16965 1.896738,2.0389 3.392176,2.39383 -0.843424,0.47548 -1.053106,1.23597 -1.103601,2.01049 -0.05736,0.87976 -0.250246,1.68621 -1.431579,2.16765 0.502383,0.62801 1.140046,0.99569 1.912856,1.10324 -0.08685,-0.2805 -0.08022,-0.56346 -0.01253,-0.84792 0.06973,-0.29267 0.20453,-0.58709 0.367934,-0.88211 0.007,-0.0132 0.0167,-0.0247 0.0296,-0.0337 0.53169,-0.37193 0.93763,-0.78517 1.22844,-1.23614 0.28541,-0.44263 0.4602,-0.92245 0.53441,-1.43548 -0.16118,-0.45302 -0.14585,-0.85681 0.0184,-1.21903 0.1575,-0.34743 0.45127,-0.65251 0.8569,-0.92273 -0.21056,-0.86108 -0.54729,-1.67511 -1.01004,-2.44196 -0.45589,-0.75541 -1.034,-1.46505 -1.734434,-2.1291 z m -0.278676,11.14818 c 0,2e-5 1.5e-5,5e-5 1.5e-5,5e-5 l 3.9e-5,-3e-5 c -1.5e-5,0 -3.9e-5,-2e-5 -5.4e-5,-2e-5 z M 42.390973,105.19144 c 0.159087,0.61402 0.179384,1.0921 -0.04763,1.32817 0.452488,0.33594 0.940395,0.64362 1.442693,0.92353 -0.429039,-0.76019 -0.854116,-1.52134 -1.395079,-2.2517 z m 31.476175,0.22336 c 1.474377,0.59215 2.315629,1.27477 2.325528,2.07615 0.541508,-0.26507 1.078127,-0.54023 1.608785,-0.82432 0.696773,-0.37292 1.39683,-0.76462 2.07294,-1.18273 -1.988622,0.0878 -3.970783,0.22648 -6.007253,-0.0691 z m 44.902752,0.73564 c -0.79402,0.83917 -0.38077,1.79624 -0.58696,2.40232 -0.056,0.1644 -0.21498,0.27624 -0.36589,0.38924 -0.58271,0.42046 -1.09877,0.85939 -0.8285,1.51593 0.88072,1.43002 1.54774,2.91312 2.71094,4.14757 0.66244,0.70295 1.44246,1.33898 2.3969,1.87545 0.4959,0.4662 1.11055,0.80589 1.61966,1.24405 0.23936,0.20609 0.34805,0.5646 0.60724,0.72862 0.22692,0.1436 0.48863,0.17877 0.71339,0.36172 0.56661,-0.17984 1.02798,-0.41879 1.37214,-0.72318 v 0 c -0.67377,-0.43176 -1.33228,-0.89155 -1.97614,-1.37721 -0.67408,-0.50843 -1.33327,-1.04631 -1.97854,-1.61101 l -0.31478,-0.27503 c -1.50369,-1.31266 -3.85293,-3.36355 -3.87164,-3.9853 -0.0958,-1.05466 0.5898,-1.56399 1.2789,-2.07596 0.40684,-0.3022 0.81516,-0.60545 1.04311,-1.02161 -0.64314,-0.38601 -1.24095,-0.95282 -1.81978,-1.5956 z m -74.821858,0.28828 c 0.445024,0.52518 0.525575,0.9325 0.241677,1.22206 0.639982,0.3339 1.29314,0.62427 1.916117,0.87204 -0.541032,-0.73806 -1.024901,-1.49136 -2.157794,-2.0941 z m 2.682008,0.57877 c 0.621296,0.85973 0.934224,1.5544 0.747353,1.98123 0.06919,0.0233 0.137785,0.0461 0.205059,0.0681 0.796197,0.26078 1.610847,0.48945 2.433638,0.68364 z m 23.162907,0.49397 c 1.463769,0.61052 1.781693,1.34223 1.406861,2.10134 0.497994,-0.16906 0.991272,-0.3567 1.485841,-0.55881 0.515723,-0.21079 1.026683,-0.43294 1.537892,-0.65438 0.585845,-0.25391 1.16706,-0.5205 1.74285,-0.79863 -1.933177,0.10916 -3.845644,0.24138 -6.173444,-0.0895 z m -19.967409,0.28023 c 0.844201,0.90771 1.307935,1.64462 1.294502,2.19777 0.456169,0.0898 0.913397,0.16877 1.370065,0.23661 0.343748,0.0511 0.688212,0.0998 1.033158,0.14612 -1.149782,-0.90564 -2.38449,-1.74287 -3.697725,-2.5805 z m 70.926752,0.0473 c -0.24657,0.44923 -0.67104,0.7645 -1.09411,1.07873 -0.64694,0.48064 -1.29061,0.95884 -1.20426,1.90905 v 0.009 c -0.003,0.52585 2.32271,2.55589 3.80842,3.85279 l 0.31481,0.27505 c 0.63967,0.55982 1.29536,1.09471 1.96823,1.60221 0.65154,0.49148 1.31878,0.95666 2.00253,1.39334 0.20698,-0.2152 0.36109,-0.45986 0.45898,-0.73616 -0.79265,0.093 -1.19851,-0.66768 -1.69512,-1.20168 -0.77494,-0.83322 -1.51287,-1.8389 -2.14517,-2.84988 -0.36691,-0.48645 -0.54771,-1.07344 -0.94214,-1.4778 -0.23669,-0.24266 -0.51261,-0.44224 -0.84647,-0.57832 -0.86594,0.36047 -1.59264,0.49085 -1.82205,-0.20064 0.94859,0.47435 1.67385,-0.0688 2.15937,-0.44423 0.75752,-0.58571 1.05198,-1.61153 1.38443,-2.54792 -0.34872,-0.0956 -0.53196,0.0886 -0.66863,0.35108 -0.59967,0.0146 -1.15458,-0.1485 -1.67882,-0.43444 z m 6.2546,9.38381 c 0,-2e-5 0,-2e-5 0,-5e-5 v 0 c 0,3e-5 -4e-5,3e-5 -4e-5,5e-5 z m -37.942871,-9.33901 c -0.465027,-0.002 -0.900548,0.17146 -1.319649,0.44343 -0.531872,0.34517 -0.842247,1.26338 -1.347954,1.76518 -0.573128,0.5689 -1.488238,0.0868 -1.954346,1.05413 -0.113783,0.18354 -0.190264,0.39841 -0.272769,0.61799 -0.07759,0.20626 -0.235864,0.42763 -0.178723,0.66192 0.09304,0.38169 0.16915,0.84705 0.203347,1.42237 0.143351,0.73248 0.800424,1.63581 1.377521,1.51448 -0.407846,-1.05791 -0.659081,-2.16333 -0.350379,-3.43837 1.654159,-1.11451 3.406192,-1.99263 5.429174,-2.2173 l -0.30976,-0.73368 -0.342417,-0.84778 c -0.325755,-0.16692 -0.635959,-0.24084 -0.934045,-0.24237 z m 24.546611,0.0644 c -0.2027,0.11964 -0.38337,0.25966 -0.40359,0.54843 -0.11721,0.93479 -0.23452,1.86951 -0.35179,2.80431 -0.0668,0.53203 -0.25072,0.98036 -0.20037,1.59628 -0.30949,0.69723 -0.2677,1.94771 -0.53959,2.90896 0.45105,0.0729 0.90031,0.12384 1.34651,0.13938 0.006,-0.50133 0.0586,-0.99083 0.14281,-1.47174 0.0877,-0.50084 0.21104,-0.99511 0.35457,-1.48549 0.15454,-0.52776 0.41449,-1.03329 0.67417,-1.53828 0.41948,-0.81582 0.83835,-1.63042 0.786,-2.50479 -0.63595,-0.2845 -1.23473,-0.62203 -1.80872,-0.99706 z m -60.305027,0.66547 c 0.609972,0.69838 0.822908,1.30488 0.531258,1.80002 0.988851,0.12824 1.981749,0.23569 2.97646,0.31886 -1.166982,-0.62466 -2.332719,-1.20426 -3.507718,-2.11888 z m 13.436714,0.25138 c -0.141887,0 -0.276427,0.0139 -0.400998,0.0437 1.299834,0.39447 1.968464,0.87369 2.006366,1.43746 0.260955,-0.0485 0.521031,-0.10052 0.780048,-0.15603 0.608625,-0.13043 1.198728,-0.29268 1.780417,-0.48074 -0.71282,-0.13473 -1.422878,-0.31234 -2.123994,-0.46603 -0.674592,-0.14794 -1.427027,-0.38136 -2.041839,-0.37841 z m -10.744658,0.0414 c 1.044412,0.72868 1.484744,1.35578 1.159628,1.85395 1.136497,0.0886 2.275064,0.14504 3.41262,0.16409 -1.334007,-0.88497 -3.11016,-1.27614 -4.572248,-2.01804 z m 3.895703,0.0244 c 1.282322,0.77989 1.567318,1.44149 0.965985,1.99763 0.939267,0.0104 1.884473,-0.005 2.829546,-0.0521 -1.241214,-0.70259 -2.416594,-1.50824 -3.795531,-1.94555 z m 55.716708,0.0976 c 0.023,0.88616 -0.39351,1.69617 -0.81052,2.50715 -0.25585,0.49753 -0.51194,0.99553 -0.66091,1.50453 -0.14104,0.48191 -0.26245,0.96918 -0.34949,1.46576 -0.0831,0.47439 -0.13428,0.95504 -0.14072,1.44402 0.3627,0.005 0.7233,-0.0158 1.0813,-0.0683 -0.34471,-1.99562 0.8471,-3.64255 2.13476,-5.26752 v 0 l -0.0355,-0.0578 -0.008,-0.0128 -0.005,-0.0142 c -0.16845,-0.40927 -0.0814,-0.74656 0.12187,-1.0347 -0.46147,-0.12873 -0.90255,-0.28555 -1.32704,-0.46619 z m -52.659899,0.10854 c 1.198207,0.68996 1.789477,1.24116 1.873343,1.66641 0.912075,-0.0718 1.821464,-0.17625 2.72244,-0.31929 -1.434475,-0.56905 -2.983278,-0.99734 -4.595783,-1.34712 z m 32.754217,0.0978 -4.467266,0.63588 c -2.273672,0.52134 -4.453585,1.1006 -5.527011,2.36403 -0.374155,0.89278 -0.145444,2.00915 0.07401,3.12198 0.839967,-0.095 1.120994,-1.69163 1.188159,-2.90572 0.0039,-0.0765 0.565346,-0.38551 0.703528,-0.41624 0.568801,-0.12629 1.201717,-0.20927 1.68697,-0.25456 2.18396,-0.20363 4.407659,-0.0434 6.34163,-2.54537 z m -8.492559,3.9353 c -0.03922,0.3298 -0.100071,0.69365 -0.195907,1.03907 0.07604,0.0965 0.131746,0.23141 0.177859,0.38956 -0.02778,0.65475 0.235778,1.0752 0.815195,1.23098 0.100373,0.19025 0.111308,0.3804 0.08151,0.57065 0.58309,-0.25395 0.219621,-1.10169 0.103114,-1.59869 -0.03806,-0.16274 -0.0096,-0.41149 -0.07456,-0.5676 -0.143537,-0.34455 -0.421832,-0.44278 -0.684336,-0.73883 -0.07713,-0.0868 -0.150004,-0.2022 -0.222835,-0.32514 z m -3.033757,1.48749 c -0.01891,0.43355 0.0054,0.88457 -0.03923,1.27982 -0.07752,0.68058 -0.273602,1.23995 -0.09159,1.84062 -0.377603,0.41742 -0.381844,0.96345 -0.130446,1.59776 0.222617,1.00634 0.664054,1.45888 1.255362,1.53254 l -0.374964,-0.70107 c 0.75484,0.0391 1.24372,-0.12146 0.782616,-0.99453 -0.163063,-0.29341 -0.187836,-0.82275 -0.489129,-0.8804 -0.274505,-0.97124 -0.308391,-1.90029 -0.10165,-2.78736 -0.351243,-0.19354 -0.637912,-0.56887 -0.810915,-0.88738 z m 2.663734,0.0549 c -0.131209,0.30504 -0.302086,0.56723 -0.525093,0.73826 0.01946,0.0378 0.04024,0.0783 0.04631,0.0894 0.34504,0.62848 0.721118,1.2372 1.166018,1.80181 0.431389,0.54752 1.009,0.82579 1.523361,1.49586 -0.134486,0.90615 0.506407,0.97713 1.499974,0.66844 0.317917,0.18757 0.586935,0.48909 0.880399,0.73361 0.470949,-0.81973 -0.63167,-1.50778 -1.161488,-1.94066 -0.386016,-0.3155 -0.563867,-1.05734 -1.430824,-0.53743 -1.00332,-0.66901 -1.609859,-1.747 -1.998685,-3.04934 z m 10.756955,0.25719 c -0.275455,0.29916 -0.123481,0.8643 0.04483,1.21341 0.13893,0.28819 0.405356,0.54063 0.839135,0.74591 0.243957,0.276 0.592554,0.46462 0.970491,0.62864 -0.102794,0.48425 0.208757,0.91845 0.752923,1.32437 -0.0391,0.14245 -0.0671,0.29048 -0.0167,0.47778 0.59884,-0.37745 0.7174,-0.90482 0.13387,-1.65124 h -10e-6 c 0.0189,-0.31381 0.0641,-0.57024 -0.0815,-0.81454 -0.18414,-0.30876 -0.56369,-0.35959 -0.999648,-0.81237 -0.605326,-0.16338 -1.15934,-0.50695 -1.625121,-1.08918 z m -11.513468,0.6159 c -0.08318,0.0346 -0.172177,0.0584 -0.267399,0.0691 -0.11183,0.0125 -0.221839,0.0142 -0.314679,0.0191 0.182342,1.14583 0.889535,1.49861 1.005841,3.40866 0.123348,0.98388 0.873129,1.23684 1.907556,1.15755 0.23619,0.19182 0.32317,0.48788 0.342347,0.83151 0.515295,-0.16806 0.245109,-1.01976 0.159943,-1.50196 -0.07067,-0.39953 -0.24325,-0.78552 -0.534861,-1.1556 -0.230898,-0.23599 -0.413022,-0.13037 -0.61956,-0.19561 -0.775129,-0.74647 -1.109071,-1.69798 -1.653193,-2.55172 -0.0047,-0.008 -0.01557,-0.0458 -0.02607,-0.081 z m -0.985784,0.0129 c -0.105666,0.7908 -0.06623,1.61061 0.151117,2.41445 0.08923,0.3299 0.460551,0.29922 0.359788,0.97852 0.195285,-0.0922 0.433794,-0.0542 0.715747,0.11384 -0.04389,-0.76635 -0.264543,-1.55728 -0.666427,-2.30147 -0.188576,-0.34932 -0.260878,-0.74683 -0.333125,-1.13961 -0.07775,-0.0123 -0.153678,-0.0347 -0.2271,-0.0658 z m 16.795341,0.30373 -0.13746,0.0412 c -0.42841,0.12817 -0.85501,0.21463 -1.27086,0.24434 0.5004,0.19381 0.98988,0.41629 1.48722,0.61712 0.11875,0.0479 0.23016,0.10524 0.33836,0.16642 0.15008,0.0728 0.23586,0.1301 0.30535,0.18158 0.11334,0.0683 0.22764,0.13514 0.34834,0.19432 0.0874,0.0428 0.17729,0.0801 0.27076,0.10765 0.43472,0.12828 0.88023,0.23234 1.33053,0.29433 0.20368,0.0219 0.40723,0.0356 0.60858,0.0431 0.082,-0.0364 0.15332,-0.0728 0.21848,-0.10634 0.0228,-0.0148 0.0417,-0.0272 0.0536,-0.0343 0.13287,-0.0806 0.28271,-0.15209 0.44239,-0.13881 0.30662,0.0254 0.66808,0.25917 0.91789,0.42723 0.0746,0.0503 0.16069,0.0903 0.24019,0.13266 0.1016,0.0542 0.19647,0.11215 0.28485,0.185 0.22799,0.0838 0.43535,0.18042 0.62475,0.29468 0.18767,0.0602 0.31132,0.0773 0.49077,0.17664 0.38945,0.21561 0.72428,0.4684 1.04395,0.73139 0.1296,-0.36617 -0.15741,-0.7131 -0.46877,-1.00957 -0.24225,-0.23058 -0.59294,-0.43319 -1.08597,-0.59902 -0.74593,-0.36833 -0.86485,-0.956 -1.27774,-0.99361 -0.17435,-0.0158 -0.27823,0.10623 -0.5109,0.22466 -0.75966,0.19042 -1.48661,0.0925 -2.19638,-0.15437 -0.6968,-0.24237 -1.50136,-0.6036 -2.05794,-1.02616 z m 10.22505,0.0944 c 0.007,0.29991 -0.0199,0.60381 0.0296,0.88724 0.0395,0.22611 0.17088,0.42944 0.19479,0.65545 0.0431,0.40692 -0.0274,0.85193 0.13342,1.13958 0.25475,0.456 0.71198,0.70685 1.54478,0.57692 0.27128,0.13356 1.85478,0.49512 2.15636,0.0836 0.40812,0.0282 0.64149,0.18748 0.86927,0.35105 -0.0322,-0.60868 -0.50178,-0.9638 -1.17013,-1.20357 -0.66805,-0.4134 -0.51627,-0.78252 -0.83451,-0.94989 -0.18125,-0.0952 -0.38334,-0.11288 -0.61974,-0.003 -0.37346,0.0454 -0.5908,-0.16084 -0.65191,-0.61852 -0.20432,-0.23448 -0.28858,-0.50044 -0.31219,-0.78264 -0.44834,-0.0153 -0.89605,-0.0656 -1.33971,-0.13627 z m 2.65436,0.0677 -0.0176,0.002 c -0.36834,0.0539 -0.73847,0.0748 -1.10864,0.0704 0.0111,0.1157 0.0335,0.22571 0.0721,0.33003 0.043,0.0949 0.0938,0.18702 0.1521,0.27542 0.013,0.0167 0.0265,0.0332 0.0407,0.0497 l 0.037,0.0425 0.003,0.0219 c 0.13476,0.17771 0.29962,0.33701 0.48645,0.46856 0.2318,-0.0827 0.46498,-0.073 0.69114,0.0458 0.0801,0.0421 0.14655,0.0977 0.20191,0.16927 0.0393,0.0509 0.0707,0.10693 0.0997,0.16424 l 5e-5,6e-5 0.20263,0.0583 c 0.24767,0.0714 0.50865,0.12578 0.76166,0.17444 0.35298,0.0679 0.70997,0.1234 1.06718,0.1633 0.43634,0.0486 0.93177,0.085 1.36843,0.0335 h 0.008 0.009 c 0.85154,-0.0225 1.52908,0.22779 1.99508,0.95822 l 0.005,0.009 c 0.25731,0.0454 0.51571,0.0679 0.76491,0.1756 -0.22267,-0.60861 -0.73662,-0.93959 -1.4055,-1.12322 -0.47584,-0.20068 -0.5834,-0.65396 -0.98126,-0.65432 -0.16793,0 -0.35627,0.0626 -0.57485,0.21846 -0.35599,-0.29448 -0.67874,-0.25043 -0.9788,0.0252 -0.52776,-0.0297 -0.89265,0.0527 -1.30723,-0.19231 -0.54034,-0.31926 -1.28205,-0.89611 -1.59306,-1.48533 z m -15.168558,0.0931 c 0.08106,0.0636 0.166123,0.12189 0.257446,0.17967 0.07261,0.0461 0.147292,0.091 0.218852,0.13993 0.13823,0.0829 0.25001,0.16921 0.33441,0.2982 0.0604,0.0924 0.0829,0.18306 0.089,0.2789 0.0439,0.19314 0.0241,0.38949 0.01,0.59649 0.11432,0.15351 0.20574,0.30743 0.2698,0.45931 0.19293,0.20992 0.37489,0.40238 0.55423,0.59412 0.25092,0.26809 0.33762,0.62669 0.7094,0.75996 0.4922,0.17643 1.10506,0.12826 1.79889,0.08 0.50621,-0.0352 0.0189,0.31574 1.65594,-0.16827 v 0 c 0.50084,0.38447 1.83489,0.67836 2.46195,-0.0489 0.37888,-0.0165 0.57912,0.17562 0.81516,0.32606 -0.28732,-0.4829 -0.69685,-0.92672 -1.5428,-1.23065 -0.18238,-0.15963 -0.37949,-0.22283 -0.53403,-0.32681 -0.35752,-0.24051 -0.62242,-0.37877 -0.82882,-0.39592 -0.26047,-0.0216 -0.55588,0.33393 -0.71885,0.29276 -0.64712,-0.0308 -1.3059,-0.16119 -1.97224,-0.35783 -0.46098,-0.13601 -0.81286,-0.46739 -1.27996,-0.65597 -0.61417,-0.24806 -1.30029,-0.56703 -1.950727,-0.78548 -0.117084,-0.006 -0.232868,-0.0181 -0.347219,-0.0356 z m 31.324418,1.05899 c -0.0177,0 -0.036,0.002 -0.0542,0.005 -0.19791,0.0339 -0.40898,0.14718 -0.63523,0.35322 -0.18496,-0.0475 -0.38474,-0.056 -0.63693,0.0754 -0.37046,-0.10808 -0.74106,-0.0607 -1.11156,0 -0.41341,-0.22949 -0.84762,-0.35879 -1.30662,-0.36928 l -0.002,0.005 c -0.095,0.26823 -0.23514,0.50052 -0.40812,0.7021 0.65759,-0.0731 1.31884,-0.0768 1.97781,-0.004 l 0.0165,0.002 0.016,0.005 c 0.0973,0.0288 0.19418,0.0493 0.29092,0.063 0.22106,0.004 0.43987,0.006 0.65429,0.005 0.13537,-0.0135 0.27116,-0.0337 0.40833,-0.0566 l 0.008,-0.002 h 0.008 c 0.19907,-0.0148 0.32961,-0.37223 0.62311,-0.36086 0.014,0 0.0278,0.002 0.041,0.004 0.0326,-0.007 0.0677,-0.0125 0.10593,-0.0174 0.61716,0.66467 1.11713,0.45442 1.5673,0.76133 0.12697,0.0865 0.24337,0.18091 0.34503,0.28614 0.0677,0.0663 0.12788,0.13953 0.17885,0.22043 0.0486,0.0726 0.0907,0.14982 0.1258,0.23238 0.2453,-0.0746 0.74585,0.52111 0.73613,0.17609 v 0 c -0.32569,-0.94416 -0.9486,-1.47538 -1.96592,-1.45851 -0.35196,-0.0258 -0.62049,-0.62785 -0.98367,-0.62618 z m -0.16646,0.6091 c -0.1776,0.004 -0.31614,0.33974 -0.59341,0.36053 -0.47078,0.0786 -0.94434,0.12912 -1.43757,-0.0167 -0.7331,-0.0807 -1.45422,-0.0644 -2.16539,0.0324 -0.35238,0.32257 -0.79551,0.55184 -1.25619,0.7183 0.87329,0.73858 2.6003,0.27849 3.88574,0.42706 0.24635,0.0285 0.5245,0.10598 0.74235,0.004 0.10142,0.12351 0.28049,0.20291 0.49643,0.2484 0.22389,0.0471 0.45624,-0.0176 0.7143,-0.0318 0.43019,-0.0239 0.87642,-0.0419 1.06607,-0.15264 0.11517,-0.0672 0.18285,-0.17053 0.18285,-0.32372 0.25268,0.0767 0.43655,0.222 0.6107,0.37722 -0.0508,-0.70807 -0.69783,-1.07771 -1.75271,-1.21583 v 3e-5 c -0.23706,-0.1771 -0.30295,-0.4203 -0.48468,-0.4273 -0.003,0 -0.005,0 -0.008,0 z m -15.18063,0.11772 c 0.0446,0.0715 0.0874,0.13201 0.129,0.18368 0.0745,0.0718 0.15833,0.13377 0.2483,0.19054 0.24038,0.0875 0.4756,0.19699 0.67721,0.33969 0.17982,0.10289 0.39345,0.26172 0.66048,0.53498 0.35554,0.17827 1.1559,0.2521 1.7453,0.20039 0.18042,-0.0158 0.35634,0.01 0.47436,-0.0447 0.16092,-0.0741 0.27375,-0.20623 0.31525,-0.424 -0.0813,0.55494 0.37239,0.42893 0.85338,0.26823 -0.33285,-0.52166 -0.84066,-0.89787 -1.83219,-0.87174 -0.99305,0.11733 -2.68301,-0.20771 -3.27109,-0.37712 z"
         style="fill:#000000;stroke-width:0.04761018" />
    </g>
    <g
       id="g932"
       transform="translate(0,2.9028937)">
      <path
         sodipodi:nodetypes="czcscccccc"
         inkscape:connector-curvature="0"
         id="rect815-7-61-6"
         d="m 36.501919,240.59038 c 0,0 25.654656,11.64168 61.481864,11.64168 35.827207,0 55.131877,-11.64168 55.131877,-11.64168 l 7.40833,-65.49457 h -12.7 V 146.04857 H 58.726919 v 29.04724 H 33.194627 Z"
         style="opacity:1;fill:none;fill-opacity:1;stroke:#000000;stroke-width:0.90292138;stroke-linecap:round;stroke-linejoin:round;stroke-miterlimit:4;stroke-dasharray:none;stroke-dashoffset:0;stroke-opacity:1;paint-order:stroke fill markers" />
      <rect
         transform="scale(1,-1)"
         y="-164.04855"
         x="58.275463"
         height="17.999998"
         width="89.999992"
         id="rect888-3-5-29-7"
         style="opacity:1;fill:#000000;fill-opacity:1;stroke:none;stroke-width:0.53999889;stroke-linecap:round;stroke-linejoin:round;stroke-miterlimit:4;stroke-dasharray:none;stroke-dashoffset:0;stroke-opacity:1;paint-order:stroke fill markers" />
      <rect
         transform="scale(1,-1)"
         y="-173.04855"
         x="67.275467"
         height="26.999998"
         width="71.999992"
         id="rect888-3-5-2-3-5"
         style="opacity:1;fill:#000000;fill-opacity:1;stroke:none;stroke-width:0.59153914;stroke-linecap:round;stroke-linejoin:round;stroke-miterlimit:4;stroke-dasharray:none;stroke-dashoffset:0;stroke-opacity:1;paint-order:stroke fill markers" />
      <path
         inkscape:connector-curvature="0"
         id="path7300-6"
         d="m 73.517595,247.20198 c -10.081592,0.008 -20.639674,-1.69192 -28.808955,-5.563 -2.985939,-1.41487 -5.783226,-1.88002 -7.860461,-5.13748 6.305922,5.14373 10.273615,2.6987 15.428798,3.61956 1.443511,0.25783 2.888041,0.49074 4.333715,0.69642 3.707508,0.52744 7.422636,0.87629 11.147009,1.00961 19.114733,0.6843 38.473879,-4.30636 58.290669,-19.94183 -5.91894,6.89345 -12.24382,9.77713 -17.15519,13.53534 -7.06066,5.40286 -13.087178,9.10914 -20.812111,10.51816 -4.485237,0.81812 -9.463409,1.25918 -14.563474,1.26322 z m 52.530775,-25.31672 c 0,0 0,0 0,0 v 0 c 0,0 0,0 0,0 z m -56.125379,19.18067 c -5.174368,-0.005 -10.316156,-0.39553 -15.434993,-1.05857 4.597674,-0.40757 6.782412,-1.07606 6.554152,-2.00537 -0.228252,-0.92927 -2.869518,-2.11952 -7.923665,-3.57057 7.290976,1.02171 14.682496,2.68784 22.166009,3.0041 7.966353,0.33665 16.037158,-0.0803 24.202119,-1.17802 -7.21953,2.49897 -14.346351,3.89903 -21.404351,4.48213 -2.7296,0.2255 -5.448911,0.32883 -8.159271,0.3263 z m 12.760066,-4.32874 c -7.888331,0.004 -16.944057,-0.88838 -24.419826,-2.2776 -6.496405,-1.20724 -13.919251,-2.26768 -14.106939,-4.48331 2.597542,2.69195 8.725442,1.53404 13.103807,2.06377 11.012812,1.3322 22.097069,1.58219 33.293117,0.13745 10.570664,-1.36396 21.241144,-4.2387 32.045254,-9.13935 0.86646,-0.39305 2.43476,-1.22301 3.30302,-1.6423 -1.47147,1.22924 -3.42975,2.48367 -4.88215,3.42301 -2.67886,1.7326 -5.54562,3.2552 -8.2254,4.64257 -7.05107,3.65051 -14.221744,6.01973 -21.847221,6.86814 -2.49158,0.27718 -5.294953,0.40594 -8.263662,0.40762 z m -7.594159,-4.28813 c -5.395988,0 -10.858745,-0.32717 -16.361979,-0.85451 5.947644,-0.89383 10.439092,-2.59326 11.608307,-4.69554 0.70149,-1.26134 0.0838,-2.78506 -2.47817,-4.69546 5.016471,1.83185 10.270237,3.05593 15.428883,4.13603 6.141575,1.28597 12.243753,2.27268 18.972251,2.51598 -8.768618,2.61489 -17.869803,3.59225 -27.169292,3.5935 z m 48.929572,-4.86143 c -0.0465,5e-5 -0.0936,0 -0.14145,-0.004 2.78618,-2.60104 3.80572,-5.58266 0.93864,-9.40145 -0.39351,-0.3217 -0.45089,-0.80603 -0.8289,-1.15201 -2.04149,-1.86837 -4.25287,-3.83554 -6.72641,-5.02517 -2.31057,-1.11132 -8.92543,-3.90193 -5.51337,-4.50773 h 3e-5 c 1.29685,0.21144 2.65091,1.67212 4.02835,2.48905 2.27001,1.34624 4.64826,2.67136 7.20384,4.04125 0.48555,0.26029 0.76505,0.70797 1.1047,0.98887 2.07587,1.71687 3.10428,1.74616 3.43829,2.47935 0.31575,0.6933 -0.04,1.69593 -0.0119,2.70253 0.0248,0.88824 0.14664,1.91109 0.27847,2.94314 0.0948,0.74223 -0.42061,1.55162 -1.08714,2.37779 -0.32551,0.40346 -0.55696,1.32338 -1.03125,1.21659 -0.41273,0.55062 -0.95494,0.85057 -1.65191,0.85159 z m -23.39204,-0.10027 c -4.592534,-0.002 -9.371406,-0.60324 -13.854323,-1.3704 -3.036046,-0.51953 -6.079181,-1.22882 -9.127904,-2.11432 -4.755967,-1.38142 -13.210306,-2.18102 -14.303399,-5.38043 2.66884,2.21722 7.223826,1.78561 10.826906,2.50244 7.926903,1.57715 15.823904,2.55783 23.681571,2.75185 9.175779,0.22668 18.297949,-0.61903 27.351259,-2.83988 -3.08867,2.04295 -6.79528,2.9207 -10.23242,3.88148 -3.54734,0.99152 -6.59879,2.06157 -10.19031,2.39011 -1.35711,0.12417 -2.74553,0.17976 -4.15138,0.17915 z m -2.539923,-4.22035 C 90.469248,223.25683 82.2888,222.1712 73.856906,220.60579 v 0 c 4.137699,-0.32794 6.704593,-1.74457 7.774891,-3.14055 0.832425,-1.08579 0.601831,-2.41553 -1.025096,-4.06576 8.612204,3.88317 10.76824,5.95455 16.62095,7.55206 3.283249,0.89621 6.672959,1.47911 10.182579,1.70853 -2.99187,0.42389 -6.10763,0.61128 -9.323816,0.60694 z M 114.261,221.47792 c -1.40988,0 -2.79536,-0.0315 -4.12002,-0.0466 -3.6632,-0.0417 -7.11842,-0.0773 -10.572881,-0.78695 -4.66231,-0.95767 -7.881296,-3.60766 -12.230647,-4.9204 -1.960354,-0.5917 -4.897769,-1.92299 -7.420768,-3.07344 -2.090536,-0.95318 -3.98855,-1.74132 -3.982075,-2.25014 8.155256,3.25465 16.328863,5.90633 24.502421,7.6338 8.17364,1.72749 16.34724,2.53081 24.50248,2.08886 -3.31322,1.16089 -7.07549,1.35652 -10.67851,1.35483 z m 4.47137,-2.08724 c -13.67182,0.0264 -26.483654,-3.12294 -38.229117,-8.22389 1.213554,-0.32128 3.502675,-1.59832 4.2649,-2.33543 1.937606,-1.87374 2.754054,-4.36818 2.821919,-7.02234 0.118196,-4.62294 -1.933278,-9.74433 -4.408997,-12.85176 -0.825282,-1.03576 -1.828071,-1.74644 -2.639484,-2.27545 -1.255557,-0.81854 -3.608823,-2.13685 -6.199299,-3.25933 -1.660532,-0.71956 -3.193217,-1.3889 -5.152139,-1.80862 -5.338443,-1.144 -11.435313,-0.8281 -16.744571,-0.0394 -6.38659,0.94868 -15.844419,4.63357 -12.073777,10.88133 -2.052557,-0.89151 -2.189011,-3.6358 -1.808552,-5.18529 0.381346,-1.55306 1.514123,-3.18013 3.15421,-4.32842 2.476303,-1.73383 5.942647,-2.71058 8.401245,-3.34615 6.380006,-1.64946 14.420653,-0.38705 19.239365,0.80564 6.921147,1.71306 13.904946,3.42549 20.224901,10.57731 0.151304,16.76742 12.388106,25.73179 34.638386,28.23061 -1.8445,0.11825 -3.67431,0.17769 -5.48899,0.1812 z m 5.48899,-0.18119 c 0,-2e-5 0,-2e-5 0,-4e-5 v 0 c 0,-3e-5 0,-3e-5 0,-5e-5 z m 0.33229,-0.24861 c -3.13774,-0.31356 -6.11137,-0.75409 -8.90449,-1.33466 -8.6476,-1.91127 -17.344814,-5.61281 -22.106642,-12.98785 -2.379742,-3.68569 -3.486868,-7.83122 -3.723541,-12.14685 3.385233,2.48406 7.093372,4.06484 11.251493,4.73135 2.42266,0.38834 4.89009,0.44865 7.33492,0.27122 2.81046,-0.204 5.60294,-0.71834 8.33053,-1.42204 l 0.68424,0.004 c 0.22677,0.002 0.50634,0.0415 0.65111,0.23811 0.21349,0.28994 0.0842,0.83598 -0.0106,1.14722 -0.18265,0.5997 -0.49517,1.21063 -0.79959,1.75758 -0.32845,0.59018 -0.6877,1.16204 -1.052,1.73058 -0.93914,1.46576 -2.07283,2.80091 -2.99891,4.27547 -0.16372,0.26077 -0.34493,0.52627 -0.49081,0.7967 -0.0216,0.0402 -0.0426,0.0814 -0.0623,0.1231 -0.31111,0.38898 -0.61984,0.77736 -0.92174,1.16402 l -0.0206,0.003 c -0.37823,0.0672 -1.01312,0.2174 -1.10314,0.66807 -0.10829,0.54174 0.69179,1.11046 1.06877,1.36952 0.76338,0.52471 1.63798,0.97505 2.4675,1.38688 1.00317,0.498 2.0235,0.95171 3.03179,1.43666 1.51173,0.72705 2.91018,1.73465 4.22847,2.82853 1.28733,1.21103 2.36853,2.51562 3.14549,3.95847 z m -3.07296,-6.40921 c -3.12003,-1.29573 -5.77854,-2.95293 -7.96819,-4.93788 -1.09013,-0.98815 -0.9421,-1.01756 -0.14391,-2.28862 0.89406,-1.42364 2.08575,-2.85032 2.99801,-4.27411 1.10737,-1.72838 3.25394,-5.14828 1.05443,-5.16194 1.80371,-0.58128 0.96062,1.51511 0.43124,3.98102 -0.38632,1.79947 -0.34988,3.89155 -0.0725,5.06762 0.65748,2.78796 1.86948,5.20637 3.70095,7.61391 z m -65.14627,-3.44545 c -1.683701,-0.003 -3.364577,-0.16796 -5.116167,-0.72582 -1.225594,-0.39028 -2.94231,-0.58201 -3.805836,-1.82854 3.939917,1.72511 7.290446,1.68168 10.593922,1.23952 1.399989,-0.18734 2.824276,-0.25091 4.248774,-0.47733 1.107958,-0.17612 2.203277,-0.5282 3.370321,-0.61586 4.712283,-0.35389 9.523103,-0.85815 14.393531,-1.55517 2.166394,-0.31009 4.345334,-0.65045 6.533738,-1.01423 -0.105331,0.45028 -0.239817,0.88345 -0.40355,1.29864 -2.308912,0.3318 -4.657049,1.05752 -7.016642,1.50169 -2.082045,0.39193 -4.173141,0.49981 -6.254128,0.84975 -3.344934,0.56252 -6.664239,0.99252 -9.879085,1.0378 -2.330626,0.0328 -4.500118,0.29415 -6.664878,0.28955 z m 79.92096,-0.67621 c 0.2588,-0.2405 0.51242,-0.48355 0.75944,-0.72962 1.37707,-1.05368 2.60345,-2.29039 3.69922,-3.63673 0.0226,0.0267 0.0497,0.0485 0.0805,0.0656 -1.45686,1.82887 -2.86102,3.29998 -4.53918,4.30071 z m -0.45175,-0.10057 c 1.52415,-1.41636 2.86749,-2.91884 3.75825,-4.63693 0.0152,0.003 0.0309,0.005 0.0475,0.006 l 0.0716,0.005 0.0568,-0.044 c 0.1076,-0.0834 0.48739,-0.40484 0.62863,-0.37522 0.0488,0.0102 0.13465,0.22905 0.15897,0.29385 0,0.0188 -0.002,0.0442 -0.004,0.0615 -0.005,0.0993 0,0.19681 0.0714,0.27461 v 0 c -1.52009,1.87355 -3.12106,3.3226 -4.78984,4.41445 z m -6.12165,-1.10122 c 2.1318,-1.09707 3.76868,-2.59988 3.41089,-3.11407 -0.22933,-0.32962 -1.49034,-0.004 -3.76196,0.0884 0.82669,-0.55709 1.17394,-0.93872 1.1904,-1.19947 0.0455,-0.72059 -2.56199,0.13719 -4.29959,-0.53903 1.36895,-0.35953 1.84664,-0.95456 1.81366,-1.36479 -0.0162,-0.20342 -0.1808,-0.3965 -0.4807,-0.58004 -0.38561,-0.23598 -1.12047,-0.27198 -1.80096,-0.66287 0.73397,-0.39467 0.81509,-0.72252 0.55606,-1.01546 -0.26715,-0.30214 -1.02849,-0.40112 -1.685,-0.65336 0.38647,-0.19654 0.76396,-0.40586 1.12864,-0.63013 l 0.0106,-0.006 c 0.17752,0.25336 0.3523,0.51914 0.52975,0.79469 0.12489,0.19381 0.2492,0.388 0.37556,0.58094 0.63092,0.96266 1.43521,1.91099 2.40039,2.54937 1.50194,0.99353 3.30168,1.32507 5.02019,1.74583 1.36998,0.33535 2.71586,0.32089 4.02615,-0.16559 l 0.004,-0.002 c -0.14957,0.17154 -0.30556,0.33514 -0.4764,0.49169 l -0.89681,0.82187 1.10258,-0.51389 0.0221,-0.0107 0.0227,-0.0109 0.003,-0.002 0.0166,-0.008 0.004,-0.002 0.0135,-0.007 0.0125,-0.006 0.004,-0.002 0.0228,-0.0116 h 0.002 0.002 l 0.0135,-0.007 0.007,-0.004 0.0204,-0.0104 0.0206,-0.0109 0.018,-0.01 0.004,-0.002 0.0353,-0.0192 0.004,-0.002 0.006,-0.003 0.002,-0.002 0.0265,-0.0146 0.0176,-0.01 h 0.002 l 0.009,-0.005 0.0371,-0.0213 0.002,-0.002 0.005,-0.003 0.0145,-0.008 0.0124,-0.007 0.0269,-0.016 c 0.0269,-0.0162 0.0536,-0.0325 0.0802,-0.0491 0.0267,-0.0165 0.0531,-0.0335 0.0794,-0.0506 0.0177,-0.0114 0.0351,-0.023 0.0526,-0.0345 l 0.0263,-0.0174 0.002,-0.002 0.0197,-0.0132 0.005,-0.003 0.015,-0.01 0.0113,-0.008 0.0261,-0.0179 0.008,-0.006 c 0.075,-0.0518 0.14915,-0.10505 0.22242,-0.15945 0.0507,-0.0376 0.10092,-0.0758 0.15088,-0.11426 0.0242,-0.0186 0.0484,-0.0375 0.0726,-0.0564 l 0.002,-0.002 0.004,-0.002 0.005,-0.004 0.005,-0.004 0.0274,-0.0216 0.009,-0.007 0.0247,-0.0195 0.004,-0.003 c -0.95591,1.30509 -2.09528,2.43589 -3.57519,3.24326 1.07385,-1.25754 1.28479,-1.78673 1.00142,-1.9433 -0.65278,-0.36087 -1.77836,1.06873 -3.54971,1.76679 -1.10555,0.43568 -2.25328,1.01598 -3.3024,1.12933 z m -64.204356,-1.65 c -0.911124,0 -1.812521,-0.0167 -2.702547,-0.0568 -3.107008,-0.14016 -8.464627,0.18245 -8.895557,-1.25482 1.965888,0.41688 6.047497,0.65526 8.885627,0.55286 1.596379,-0.0576 3.371621,-0.1943 4.866023,-0.48049 1.162351,-0.22258 2.038991,-0.60012 3.27671,-0.68629 1.886232,-0.13132 3.770338,-0.28357 5.652305,-0.45655 3.431338,-0.31536 6.855492,-0.69985 10.271638,-1.15235 -0.02327,0.52107 -0.0772,1.02542 -0.16234,1.51169 -2.538144,0.40337 -5.049726,0.75413 -7.526481,1.03684 -4.659772,0.53186 -9.275463,0.98021 -13.665378,0.98595 z m 75.506726,-1.58924 c -0.1345,-0.002 -0.16421,-0.0802 -0.16088,-0.18354 -0.18244,0.0368 -0.0866,-0.19408 -0.11789,-0.27948 -0.094,-0.25621 -0.17507,-0.39804 -0.30081,-0.4244 -0.21571,-0.0452 -0.47728,0.17457 -0.78178,0.4105 -0.11613,-0.008 -0.17008,-0.11802 -0.19984,-0.26695 -0.0278,-0.13912 0.022,-0.31757 0.0106,-0.47572 l 0.0616,-0.0507 c 0.08,-0.0657 0.15648,-0.13438 0.22811,-0.20704 0.27689,-0.1563 0.51222,-0.37732 0.73146,-0.36794 0.23455,0.46789 0.63921,0.65533 1.10421,0.67798 -0.0165,0.0889 -0.0212,0.17672 -0.0353,0.27213 -0.0461,0.31395 -0.24417,0.62469 -0.45358,0.8877 -0.0325,0.005 -0.061,0.008 -0.0859,0.007 z m 1.37851,-0.0537 c 0.19297,-0.65111 0.28452,-1.15312 0.20606,-1.4051 -0.0262,-0.0839 -0.12732,-0.0225 -0.23387,0.0369 0.21983,-0.30629 0.4725,-0.54801 0.73278,-0.8281 0.11407,-0.12273 0.22299,-0.24899 0.32153,-0.38469 0.18274,-0.25151 0.30209,-0.52828 0.45597,-0.79507 0.15356,-0.26626 0.33653,-0.48131 0.40898,-0.7892 0.0333,-0.14155 0.0534,-0.28281 0.0603,-0.42364 l 0.1481,-0.29361 c 0.0459,-0.091 0.0936,-0.17952 0.14308,-0.26624 0.0944,0.69165 0.33941,1.36419 0.26685,2.00559 -0.19346,-0.76172 -0.35717,-0.99853 -0.5017,-0.90311 -0.36965,0.24399 0.0791,2.67521 -0.92056,4.0296 0.23228,-1.26805 0.0336,-1.91644 -0.11602,-1.97933 -0.32432,-0.13629 -0.23862,1.41396 -0.97152,1.99604 z m -4.593,-0.25142 c 0.69221,-0.6344 0.95715,-1.17287 1.42239,-1.58464 0.21153,-0.18721 0.40737,-0.3457 0.5687,-0.46897 0.16736,-0.12783 0.28786,0.0216 0.20081,0.21795 -0.12851,0.29001 -0.33756,0.52191 -0.58544,0.72569 -0.49,0.40267 -1.03182,0.84211 -1.60646,1.10997 z m -1.89146,-0.42213 c -0.57572,-0.002 -1.15582,-0.081 -1.73967,-0.22396 -1.47751,-0.36169 -3.44694,-0.7183 -4.96136,-1.72007 -0.90703,-0.59993 -1.70155,-1.51091 -2.34703,-2.49583 -1.1506,-1.75572 -2.15591,-3.67379 -4.81678,-3.96555 1.0528,-0.27619 1.74498,-0.83146 2.30685,-1.48772 -0.53025,0.28032 -1.01867,0.70317 -1.59067,0.84098 -0.48314,0.11642 -0.87863,0.46465 -1.31792,0.69692 0.24246,-0.358 0.37625,-0.73412 0.35102,-1.13675 -0.31676,0.54987 -0.67299,1.0941 -1.05408,1.6347 -0.68189,0.96735 -1.59787,1.8043 -2.27398,2.82368 0.064,-0.27419 0.12387,-0.5485 0.1752,-0.8235 0.0848,-0.45469 0.22893,-1.27192 -0.16149,-1.62638 -0.2876,-0.26123 -0.73118,-0.17935 -1.06776,-0.0727 1.18038,-1.39398 2.65329,-2.4512 4.54084,-2.53415 l 0.0465,-0.002 0.0402,-0.0237 c 0.84764,-0.4986 1.42776,-1.25813 1.81289,-2.15394 0.39521,-0.7578 0.86065,-1.65889 1.12603,-2.58006 0.8022,1.82813 1.73138,3.48956 2.78772,4.96042 1.07818,1.50129 2.28859,2.80332 3.63143,3.88078 0.1352,0.10849 0.26038,0.2101 0.38644,0.31241 1.64106,1.33225 3.42072,2.77661 5.86918,2.36611 -0.0697,0.11111 -0.13694,0.22397 -0.20486,0.33598 l -0.30824,0.5086 0.54414,-0.24005 c 0.24803,-0.10945 0.48734,-0.24711 0.69697,-0.41936 l 0.0707,-0.01 c 0.0322,-0.004 0.0903,-0.009 0.11808,0.0139 0.16469,0.13521 -0.0496,1.0169 -0.0923,1.1945 v 0.003 c -0.0732,0.0647 -0.14597,0.13002 -0.21948,0.19459 -0.39209,0.34425 -0.86337,0.60654 -1.27314,0.93662 0.65868,-0.0379 1.42008,-0.18168 1.96768,-0.59332 -0.0128,0.0982 -0.0297,0.20028 -0.0456,0.29021 -0.18015,0.19015 -0.33973,0.40031 -0.5032,0.60483 -0.82071,0.35614 -1.65281,0.51452 -2.49428,0.51076 z m 1.74362,-3.33021 c 0,0 0,0 0,0 v 0 c 0,4e-5 0,0 0,0 z m 4.01902,2.70575 c -0.49747,-0.003 -0.86403,-0.20217 -1.05674,-0.66009 -0.18771,-0.0575 -0.36062,0.006 -0.53096,0.10465 0.0289,-0.0508 0.0554,-0.10325 0.0796,-0.15773 0.0725,-0.1633 0.0675,-0.38012 -0.0996,-0.48485 -0.12658,-0.0793 -0.27407,-0.0437 -0.38626,0.0421 -0.18711,0.14287 -0.36927,0.29301 -0.54625,0.44842 0.0132,-0.0898 0.0227,-0.17516 0.0267,-0.25298 0.0891,-0.0893 0.1695,-0.18816 0.23932,-0.29801 0.0958,-0.15053 0.20726,-0.40441 0.0348,-0.54682 -0.12184,-0.10066 -0.27533,-0.047 -0.39056,0.0316 -0.1132,0.0772 -0.22066,0.16072 -0.32547,0.24771 0.1328,-0.60975 0.17588,-1.11023 -0.13001,-1.18566 0.0791,-0.0835 0.15145,-0.17355 0.21559,-0.27092 0.0763,-0.11574 0.12829,-0.25653 0.0991,-0.39629 -0.0269,-0.12856 -0.12168,-0.23241 -0.25281,-0.25678 -0.0835,-0.0155 -0.16863,0.005 -0.23747,0.054 -0.0575,0.0413 -0.11196,0.0851 -0.16388,0.13131 -0.0332,-0.36018 -0.0124,-0.74824 0.0112,-1.138 0.86104,-0.6551 1.55639,-1.92763 2.48302,-2.58967 0.45098,-0.32221 0.89721,-0.499 1.37759,-0.72122 0.32866,-0.15204 0.63445,-0.29919 1.01877,-0.48744 1.01362,-0.49653 2.28068,-1.35947 3.21128,-0.74844 -0.79458,0.26709 -1.53612,0.70647 -2.24218,1.26057 -0.65425,0.51343 -1.06914,1.48603 -1.67673,2.15092 -0.39801,0.43565 -1.06826,0.70665 -1.5153,1.07326 -0.32628,0.2675 -0.89612,0.83116 -0.71737,0.96466 0.23976,0.10478 0.28205,-0.19062 0.48376,-0.46191 0.17373,-0.2336 0.50582,-0.43315 0.71699,-0.53332 0.29302,-0.13907 0.53598,-0.26762 0.79207,-0.42131 0.1641,-0.0985 0.33307,-0.20559 0.46825,-0.37441 0.38883,-0.48563 0.62687,-1.21297 1.03907,-1.73065 0.78688,-0.98819 1.73719,-1.40668 3.06928,-1.86102 0.42227,0.72491 -0.15922,1.79311 -0.54684,2.66538 -0.41259,0.92859 -1.23516,1.42858 -1.89364,2.7339 -0.0402,-0.19177 -0.11551,-0.33808 -0.26747,-0.38443 0.12696,0.40355 0.12892,0.78216 0.044,1.1432 -0.0649,0.27615 -0.23941,0.47934 -0.3889,0.73847 -0.14205,0.24629 -0.266,0.53181 -0.44528,0.77857 -0.34232,0.47126 -0.77198,0.76757 -1.14883,1.35163 -0.15887,0.0283 -0.30841,0.0426 -0.44772,0.0416 z m -3.4249,-3.45035 c 0,0 0,2e-5 0,2e-5 h -4e-5 c 3e-5,0 3e-5,-2e-5 4e-5,-2e-5 z m -0.63874,3.01332 c 0.5593,-0.25922 0.98754,-0.80547 1.53938,-1.18187 0.20617,-0.1406 0.24999,0.0116 0.092,0.25985 -0.37891,0.59566 -1.08222,0.71238 -1.63138,0.92202 z m -61.671556,-0.27116 c -2.439701,0 -4.755789,-0.12181 -6.935787,-0.43819 -1.174454,-0.17052 -2.748162,-0.43669 -3.982932,-0.71554 -0.960335,-0.21687 -1.608107,-0.2788 -1.890387,-0.77771 0.312119,0.0405 0.623451,0.14445 0.936893,0.11681 1.305344,-0.11507 3.380867,0.36 5.079013,0.4785 2.941617,0.20524 5.898255,0.29229 8.866559,0.28656 2.936963,-0.006 5.885608,-0.10274 8.842534,-0.26604 0.01432,0.2481 0.02179,0.49614 0.0235,0.74392 -1.571327,0.14963 -3.115764,0.2715 -4.627529,0.35969 -2.184116,0.12742 -4.290466,0.21174 -6.311923,0.212 z m 65.141926,-0.50332 c 0.28966,-0.14986 1.5803,-0.94198 1.87396,-1.97873 0.0629,0.33026 0.0612,0.31506 0.0756,0.32058 0.31421,0.18463 0.72004,0.42747 0.81786,0.48166 -0.0912,-0.11808 -0.41906,-0.50001 -0.54295,-0.65577 -0.0225,-0.184 -0.14463,-1.31637 -0.16572,-1.50582 -0.0212,0.0206 -0.0193,0.0511 -0.0244,0.0779 -0.1558,0.91726 -0.74457,1.72939 -1.44676,2.33972 -0.1167,0.0994 -0.23544,0.19719 -0.36305,0.28234 0.0779,-0.1432 0.11104,-0.30836 0.10318,-0.4707 -0.004,-0.0554 -0.19389,-0.53091 0.0704,-0.92372 0.0117,-0.0176 0.0256,-0.0342 0.0413,-0.0485 -0.10948,0.34169 -0.0714,0.53724 0.0348,0.7506 0.0455,0.0881 0.0459,0.19025 0.0419,0.28695 0.0883,-0.0794 0.17258,-0.16318 0.26269,-0.24053 -0.17799,-0.14524 -0.21362,-0.45761 -0.1991,-0.51211 0.0696,-0.29552 0.23083,-0.53162 0.53559,-0.54179 0.1309,-0.003 0.26573,0.0256 0.37771,0.0951 0.16301,-0.24165 0.25756,-0.52174 0.32471,-0.80334 -0.0957,0.007 -0.67376,0.1102 -1.19574,0.42413 -0.41836,0.25449 -0.73188,0.60657 -0.84859,1.0842 -0.018,0.0693 -0.0321,0.1395 -0.0456,0.20975 -0.0169,0.0883 -0.0295,0.17736 -0.0455,0.26581 0.028,-0.0725 0.11542,-0.3101 0.16462,-0.37545 0.0246,0.30025 0.12281,1.18688 0.15318,1.43773 z m -3.47032,-1.06118 c 0.26237,-0.43302 0.51117,-0.86916 0.91187,-1.15675 0.12009,-0.0861 0.30852,0.0659 0.12551,0.34369 -0.25399,0.38552 -0.64999,0.64214 -1.03738,0.81306 z m -19.0434,-0.0804 c 0.0165,-0.0879 0.0335,-0.17362 0.0514,-0.2569 0.061,-0.28434 0.12889,-0.56834 0.19784,-0.85217 2.09607,-0.6009 4.22882,-1.69001 6.43593,-2.34796 0.15077,0.18006 0.29642,0.37014 0.43955,0.56862 -2.03248,1.24971 -4.68195,2.12488 -7.12474,2.88841 z m -45.818015,-0.0583 c 5.169028,-0.72271 8.245263,-1.90739 6.71717,-4.10854 2.408087,0.44007 4.758193,0.47682 6.637607,0.35102 0.02413,0.0815 0.04786,0.16307 0.07082,0.24466 0.29523,1.04423 0.515902,2.12719 0.625864,3.21704 -4.414811,0.43777 -9.466211,0.073 -14.051495,0.29582 z m 69.269805,-0.24681 c 0.0996,-0.1198 0.36669,-0.45091 0.43054,-0.59731 l -0.002,-0.004 c -0.13598,-0.0831 -0.33225,-0.0912 -0.45409,0.0331 -0.0622,0.0607 -0.0996,0.14137 -0.12743,0.22244 -0.013,0.0372 0.03,0.25703 0.14647,0.34558 z m -5.17295,-0.16418 c -1.98042,0.0102 -3.51515,-1.23549 -4.94298,-2.39457 -0.13331,-0.10813 -0.26599,-0.21586 -0.3871,-0.31313 -1.33003,-1.06718 -2.52898,-2.35695 -3.59709,-3.84419 -1.08928,-1.51666 -2.04325,-3.24022 -2.86215,-5.14402 0.15052,-0.63226 0.19418,-1.26775 0.0437,-1.86731 -0.23024,-0.9175 -0.85955,-1.59017 -1.63037,-2.10279 l -0.0711,-0.0473 -0.0853,0.0234 h -2e-5 l -0.005,-0.013 c -0.23872,-0.67227 -0.46672,-1.42789 -0.88492,-2.03116 2.4734,1.2185 3.43828,3.49298 4.18497,5.9203 0.86129,2.58432 2.01001,4.57643 3.38873,6.09409 1.66411,1.83172 2.74409,3.50732 5.89761,3.62917 -0.38763,0.3632 -0.90914,0.52522 -1.36363,0.78788 1.93391,-0.30318 3.6561,-1.97662 5.01414,-2.1318 -0.0445,0.053 -0.0884,0.10602 -0.13186,0.15864 -0.37953,0.459 -0.79254,0.99986 -1.26702,1.36085 l -0.0683,0.052 -0.005,0.0858 c -0.0254,0.41663 -0.0542,0.88033 0.006,1.31695 -0.10914,0.11932 -0.20681,0.24857 -0.29811,0.38293 -0.0176,-0.009 -0.0378,-0.0119 -0.0585,-0.008 -0.3021,0.0566 -0.59412,0.0837 -0.87704,0.0852 z m -17.66969,-2.20929 0.005,-0.024 c 0.29681,-0.36505 0.61205,-0.71544 0.91936,-1.07214 1.33934,-0.23249 2.67622,-0.4759 4.00956,-0.73723 0.0492,0.0329 0.0975,0.0667 0.14511,0.10135 -1.64412,0.76994 -3.34539,1.31526 -5.07876,1.732 z m -13.40306,-0.20375 c -6.62695,-0.0179 -11.715902,-2.02241 -15.933654,-5.15222 -0.01992,-0.42271 -0.03207,-0.84704 -0.0358,-1.27262 v -0.0294 c 2.099331,1.37352 4.469096,2.45631 6.927289,3.23535 2.763735,0.87584 5.641385,1.36821 8.373705,1.45873 1.13027,0.0374 2.26584,-0.0326 3.40782,-0.23624 1.14326,-0.20387 2.29442,-0.54145 3.45475,-1.03879 0.0195,-0.008 0.0373,-0.0214 0.0514,-0.0393 0.52186,-0.65958 1.09117,-1.22565 1.69739,-1.71871 0.60589,-0.4927 1.24963,-0.91271 1.9205,-1.28034 0.0634,-0.0348 0.0866,-0.11454 0.0517,-0.17788 -0.0347,-0.0635 -0.11445,-0.0866 -0.1778,-0.0517 -0.68266,0.37415 -1.33926,0.8028 -1.95938,1.30709 -0.61157,0.49728 -1.1871,1.06827 -1.71617,1.733 -1.13051,0.48186 -2.25258,0.80983 -3.36738,1.00859 -1.12613,0.20073 -2.24382,0.26987 -3.35446,0.23314 -2.70679,-0.0896 -5.560108,-0.57824 -8.302993,-1.44748 -2.536043,-0.80373 -4.97579,-1.93264 -7.1157,-3.37214 0.350316,-0.4356 0.781589,0.18323 0.954288,0.39847 l -0.402235,-6.14248 -0.05082,-0.05 c -0.154775,-0.15246 -0.311745,-0.30266 -0.470427,-0.45106 l -0.0098,-0.009 v -0.003 c 0.132275,-0.0414 0.265811,-0.0963 0.401145,-0.16564 l 0.06211,-0.0318 0.368271,-0.91188 0.362403,-0.85831 c 0.106522,0.0247 0.212811,0.0491 0.318936,0.0734 l 0.0078,0.002 4.673143,0.66516 c 1.051845,0.72232 1.710996,1.96059 2.09874,3.55603 1.086002,-0.52252 2.369909,2.01334 4.212469,2.44891 2.18097,0.4823 4.64958,-0.23304 7.18794,-1.22863 2.31905,-2.0341 4.53087,-4.22463 7.65601,-5.08174 l 0.0525,0.0123 c 0.17995,0.19531 0.40557,0.36694 0.62282,0.52365 0.0933,0.0699 0.25921,0.18189 0.29875,0.29817 0.0479,0.14057 0.055,0.3078 0.0571,0.45526 0.003,0.20291 -0.004,0.40472 0.006,0.60776 0.0283,0.54912 0.18055,1.00149 0.56491,1.4077 l 0.13954,0.14748 0.1359,-0.15087 c 0.88029,-0.97769 2.01636,-2.04309 3.4124,-2.06157 0.18566,0.2971 0.44621,0.44949 0.82731,0.34497 l 0.18412,-0.0504 c 0.89889,0.59775 1.37101,1.26976 1.55233,1.99232 0.35268,1.40509 -0.39328,3.00129 -1.23435,4.61403 -0.40111,0.93602 -0.98062,1.62698 -1.73849,2.07283 -1.90001,0.0835 -3.48244,1.11997 -4.84783,2.80824 -4.22599,1.11926 -7.97205,1.61863 -11.3245,1.60955 z m -52.233008,-0.49456 c -1.33565,0.007 -2.496686,-0.46151 -3.589437,-1.11596 0.793785,0.0396 1.590332,0.039 2.379727,0.005 0,0 0,2e-5 0,2e-5 -0.03775,0.002 -0.07549,0.003 -0.113239,0.005 v 2e-5 c 0.03316,0.0155 0.0667,0.0307 0.100367,0.0457 -0.07926,0.39579 0.391993,0.7494 1.565987,1.04875 -0.115768,0.008 -0.230198,0.0116 -0.343405,0.0121 z m -1.222582,-1.06091 c 0.0039,-0.0167 0.0078,-0.0335 0.01276,-0.0503 0.04483,-0.002 0.08972,-0.004 0.134533,-0.006 0.643173,-0.0312 1.285676,-0.0853 1.92583,-0.16118 -0.0039,0.3045 0.375587,0.50495 1.054272,0.62392 -1.352732,0.15274 -2.323979,-0.0489 -3.1275,-0.40623 z m -3.964596,1.04877 c -1.268142,-0.30919 -2.202117,-0.94316 -2.949594,-1.7578 0.648169,0.15283 1.302075,0.27191 1.933332,0.37148 -0.153802,0.24363 -0.109168,0.60838 1.016262,1.38632 z m 2.521303,-0.057 c -1.567949,-0.25247 -2.675884,-0.69667 -3.387537,-1.30602 0.152269,0.0234 0.303052,0.0458 0.451982,0.0672 0.610914,0.088 1.228708,0.14796 1.848618,0.18323 -0.130407,0.3042 0.33191,0.67237 1.086937,1.05555 z m 74.044513,-0.10472 c -0.38776,-0.10021 -0.99884,-0.11259 -1.66045,-0.22032 0.36223,-0.14717 0.72102,-0.30353 1.07608,-0.46982 l 0.0882,-0.0413 c 0.24903,0.19944 0.47846,0.42426 0.69579,0.66975 -0.0666,0.0202 -0.1331,0.0408 -0.19958,0.0617 z M 45.408308,196.2201 c -1.208495,-0.42152 -2.147412,-1.11287 -2.836628,-2.05373 0.571806,0.28945 1.192845,0.52273 1.834033,0.71462 -0.220197,0.31441 0.09906,0.74956 1.002595,1.33911 z m 74.969832,-0.0787 c 0.1679,-0.20422 0.33047,-0.41268 0.48295,-0.62906 0.0384,-0.0545 0.0767,-0.10912 0.11475,-0.16392 l 0.52268,-0.2764 c 0.0416,-0.022 0.0833,-0.0454 0.12514,-0.0699 l 0.36863,0.0404 c 0.73458,0.0806 1.33553,0.2847 1.85137,0.5844 -0.15735,0.0306 -0.31477,0.0611 -0.47224,0.0912 0.01,-0.0385 0.005,-0.0717 -0.0128,-0.0999 -0.0827,-0.13152 -0.6635,-0.31815 -1.30638,-0.10205 -0.50624,0.17017 -1.14997,0.5022 -1.67415,0.62523 z m 2.99328,-0.42326 c 0,0 0,2e-5 0,2e-5 v 0 c 2e-5,-2e-5 4e-5,-2e-5 0,-2e-5 z m 22.59679,0.15529 c 0.0318,0 0.063,-0.0109 0.0882,-0.0354 0.21615,-0.20985 0.20288,-0.53699 0.22588,-0.80046 0.0108,-0.1241 -0.0932,-0.13222 -0.10458,-0.008 -0.0247,0.27062 -0.19915,0.47015 -0.34721,0.61611 -0.0994,0.098 0.0239,0.229 0.13767,0.22814 z m -89.555059,-0.007 c -0.60577,0 -1.17215,-0.10653 -1.714265,-0.27927 0.724394,-0.0948 1.445379,-0.21754 2.160169,-0.36701 0.09951,0.19929 0.440627,0.34045 1.261417,0.36659 -0.606749,0.19565 -1.172391,0.27944 -1.707321,0.27969 z m -1.714265,-0.27927 c 0,5e-5 0,0 -0.0016,0 v 0 c 0,0 0,0 0.0016,0 z m 31.16984,0.23384 c -4.044875,-0.0249 -8.36978,-0.33633 -10.941709,-1.35643 -0.751291,-0.29794 -1.889874,-0.42057 -1.754517,-1.08589 0.190677,0.17974 0.581106,0.35362 0.858965,0.41698 0.21615,0.0493 0.400679,-0.14006 0.617125,-0.10741 0.218181,0.0329 0.283268,0.10628 0.514166,0.127 0.411722,0.0369 0.996626,0.013 1.394939,0.0527 1.273481,0.12693 2.512002,0.24977 3.845005,0.30882 1.580402,0.07 3.201094,0.0781 4.862848,0.0218 0.222104,0.5348 0.423762,1.07694 0.603178,1.62235 z m -34.673433,-0.29935 c -1.190455,0.002 -2.282839,-0.0798 -3.247027,-0.21861 -1.610699,-0.2319 -3.92453,-0.63119 -5.610496,-1.60306 -1.53495,-0.88481 -2.524517,-2.27513 -2.47933,-3.84732 0.02382,-0.8287 0.444573,-1.72739 1.228092,-2.76724 -0.846217,4.72986 4.431925,6.42864 8.438524,6.90671 5.232543,0.62434 15.528915,-1.81697 20.223648,-5.37414 -6.394482,5.31502 -13.394819,6.89514 -18.553411,6.90366 z M 42.577945,195.334 c -1.106876,-0.8672 -1.681958,-1.75265 -1.951956,-2.64826 0.43163,0.50147 0.965689,0.9281 1.547869,1.26565 -0.115029,0.30418 0.01969,0.76511 0.404087,1.38261 z m 15.689084,-0.10023 c -0.336191,0 -0.64757,-0.0431 -0.943376,-0.11561 0.191751,-0.0434 0.383276,-0.0886 0.574085,-0.13577 0.571899,-0.14156 1.137688,-0.29984 1.697119,-0.4744 0.244152,0.12268 0.54985,0.1663 0.933002,0.11029 -0.886765,0.44736 -1.618988,0.6136 -2.26083,0.61549 z m 72.915941,-0.0477 c -0.19668,-0.21562 -0.38916,-0.43569 -0.58065,-0.6542 2.41081,-1.45836 4.57257,-3.13257 6.52187,-4.9909 -2.38901,1.73922 -4.76437,3.20302 -7.12209,4.31547 -0.41717,-0.47028 -0.79745,-0.96879 -1.1444,-1.48941 2.70308,-0.56837 5.4398,-1.59125 8.21633,-3.09355 -3.14779,0.28115 -6.12586,0.91135 -8.88168,1.99799 -0.33022,-0.59667 -0.62389,-1.21441 -0.88573,-1.84523 3.25493,-0.31354 6.53068,-0.58009 9.95127,-0.52052 -3.18245,-0.4556 -6.68148,-0.38395 -10.23971,-0.21327 v 0 c -0.0734,-0.19714 -0.14383,-0.3952 -0.21159,-0.5939 4.05307,-0.29796 8.06933,-0.77667 10.83581,-0.0118 1.17183,0.32397 0.88955,1.0775 0.26746,1.67167 -2.16263,2.06592 -4.30106,4.06039 -6.72689,5.42781 z m -70.629163,-0.8945 c -0.08989,0 -0.180217,-0.003 -0.270925,-0.008 0.400912,-0.13603 0.798415,-0.28044 1.192245,-0.43315 0.279564,0.0429 0.579152,0.0656 0.898945,0.0681 -0.58253,0.25962 -1.191,0.37416 -1.820265,0.37272 z m 2.015495,-0.64925 -0.556435,-0.006 c 0.291332,-0.11959 0.58046,-0.24367 0.867589,-0.37237 l 0.461508,0.0694 z m 0.898587,-0.64946 c 0.269843,-0.12802 0.537802,-0.2599 0.803661,-0.39588 v 0 l 0.566894,0.053 -0.992244,0.32539 z m 1.236918,-0.622 c 0.245366,-0.13065 0.488997,-0.26456 0.730861,-0.40198 l 0.297479,0.0793 -0.683231,0.30093 z m 64.042513,-0.17214 c -0.16145,-0.24952 -0.31554,-0.50392 -0.46252,-0.7624 2.51359,-0.98799 5.16214,-1.57328 7.84273,-1.87845 -2.34137,1.18654 -4.80838,2.10741 -7.38021,2.64085 z m -46.327981,-1.42985 c -0.750699,0 -1.477357,-0.11639 -2.154424,-0.35728 1.079115,0.0192 2.084465,-0.23167 2.983605,-0.87598 0.256293,0.34322 0.502165,0.70096 0.737219,1.07024 -0.52791,0.10769 -1.052755,0.16276 -1.5664,0.16302 z m 7.969926,-0.39004 c -7.732762,-9.6385 -20.477871,-11.95621 -34.824892,-11.93442 v 0 c 4.826837,-1.14829 10.205151,-1.21168 14.970169,-1.02339 4.819848,0.19056 9.345587,1.07278 13.38492,3.09988 0.07394,0.19706 0.149825,0.39406 0.259445,0.57449 0.277213,0.56456 0.677261,0.7441 1.25955,0.84831 0.148393,0.0266 0.30418,0.0496 0.447313,0.0977 0.114126,0.0381 0.213519,0.0913 0.299495,0.17665 0.195697,0.19417 0.356698,0.45705 0.500679,0.69125 0.237801,0.38701 0.50724,0.8608 0.89524,1.11264 0.6428,0.41707 1.296876,0.59602 1.982691,0.43111 0.156729,0.14655 0.312547,0.29566 0.466909,0.44775 z m 11.782035,-1.49459 c -0.50596,-0.13341 -0.96609,-0.43603 -1.37177,-0.75909 -0.14835,-0.11817 -0.2916,-0.24169 -0.43288,-0.36728 -0.0994,-0.11344 -0.19505,-0.22976 -0.28666,-0.34682 l -0.002,-0.003 c 0.71553,-0.6774 1.30617,-1.40186 1.77176,-2.17332 0.48419,-0.80228 0.83338,-1.65552 1.04741,-2.55959 0.009,-0.0397 -0.008,-0.0791 -0.0407,-0.0999 v -2e-5 c -0.40459,-0.25997 -0.69466,-0.55059 -0.84341,-0.87868 -0.14651,-0.32312 -0.15682,-0.68723 -0.005,-1.09996 0.006,-0.0153 0.007,-0.0311 0.005,-0.0462 -0.0761,-0.54827 -0.26088,-1.06046 -0.56535,-1.53261 -0.30036,-0.46575 -0.71722,-0.89213 -1.26111,-1.27544 -0.15143,-0.27523 -0.275807,-0.54894 -0.339975,-0.81867 -0.06382,-0.26837 -0.06763,-0.53313 0.02265,-0.7918 0.0039,-0.0114 0.0054,-0.0232 0.0054,-0.0346 0.546295,-0.0438 1.156155,0.0348 1.829935,0.23633 -0.22792,0.21271 -0.53939,0.53447 -0.39923,0.7304 0.85682,1.1976 3.62955,2.62989 3.3904,3.45022 v 0 c -0.008,2.21067 -0.40203,4.30576 -1.25244,6.21486 -0.33714,0.75688 -0.82562,1.43799 -1.27107,2.15503 z m -23.232345,-0.21517 c -0.717483,0 -1.391795,-0.0361 -1.902934,-0.11999 1.019772,0.0181 2.808105,-0.42646 3.508816,-1.50611 0.641647,0.42679 1.245401,0.88083 1.785982,1.41655 -0.880259,0.11843 -2.196039,0.21125 -3.391864,0.20955 z m 21.015953,-1.40193 c -0.268808,-0.28027 -0.672747,-0.5555 -1.060748,-0.71402 -0.217543,-0.118 -0.451601,-0.19535 -0.687791,-0.17551 -0.03331,0.003 -0.06639,0.008 -0.09886,0.0142 -0.241786,-0.92389 -0.610579,-1.8502 -1.201125,-2.59748 0.824783,-1.16965 1.896738,-2.0389 3.392176,-2.39383 -0.843424,-0.47548 -1.053106,-1.23597 -1.103601,-2.01049 -0.05736,-0.87976 -0.250246,-1.68621 -1.431579,-2.16765 0.502383,-0.62801 1.140046,-0.99569 1.912856,-1.10324 -0.08685,0.2805 -0.08022,0.56346 -0.01253,0.84792 0.06973,0.29267 0.20453,0.58709 0.367934,0.88211 0.007,0.0132 0.0167,0.0247 0.0296,0.0337 0.53169,0.37193 0.93763,0.78517 1.22844,1.23614 0.28541,0.44263 0.4602,0.92245 0.53441,1.43548 -0.16118,0.45302 -0.14585,0.85681 0.0184,1.21903 0.1575,0.34743 0.45127,0.65251 0.8569,0.92273 -0.21056,0.86108 -0.54729,1.67511 -1.01004,2.44196 -0.45589,0.75541 -1.034,1.46505 -1.734434,2.1291 z M 99.676232,176.1186 c 0,-2e-5 1.5e-5,-5e-5 1.5e-5,-5e-5 l 3.9e-5,3e-5 c -1.5e-5,0 -3.9e-5,2e-5 -5.4e-5,2e-5 z m -57.285259,10.78707 c 0.159087,-0.61402 0.179384,-1.0921 -0.04763,-1.32817 0.452488,-0.33594 0.940395,-0.64362 1.442693,-0.92353 -0.429039,0.76019 -0.854116,1.52134 -1.395079,2.2517 z m 31.476175,-0.22336 c 1.474377,-0.59215 2.315629,-1.27477 2.325528,-2.07615 0.541508,0.26507 1.078127,0.54023 1.608785,0.82432 0.696773,0.37292 1.39683,0.76462 2.07294,1.18273 -1.988622,-0.0878 -3.970783,-0.22648 -6.007253,0.0691 z m 44.902752,-0.73564 c -0.79402,-0.83917 -0.38077,-1.79624 -0.58696,-2.40232 -0.056,-0.1644 -0.21498,-0.27624 -0.36589,-0.38924 -0.58271,-0.42046 -1.09877,-0.85939 -0.8285,-1.51593 0.88072,-1.43002 1.54774,-2.91312 2.71094,-4.14757 0.66244,-0.70295 1.44246,-1.33898 2.3969,-1.87545 0.4959,-0.4662 1.11055,-0.80589 1.61966,-1.24405 0.23936,-0.20609 0.34805,-0.5646 0.60724,-0.72862 0.22692,-0.1436 0.48863,-0.17877 0.71339,-0.36172 0.56661,0.17984 1.02798,0.41879 1.37214,0.72318 v 0 c -0.67377,0.43176 -1.33228,0.89155 -1.97614,1.37721 -0.67408,0.50843 -1.33327,1.04631 -1.97854,1.61101 l -0.31478,0.27503 c -1.50369,1.31266 -3.85293,3.36355 -3.87164,3.9853 -0.0958,1.05466 0.5898,1.56399 1.2789,2.07596 0.40684,0.3022 0.81516,0.60545 1.04311,1.02161 -0.64314,0.38601 -1.24095,0.95282 -1.81978,1.5956 z m -74.821858,-0.28828 c 0.445024,-0.52518 0.525575,-0.9325 0.241677,-1.22206 0.639982,-0.3339 1.29314,-0.62427 1.916117,-0.87204 -0.541032,0.73806 -1.024901,1.49136 -2.157794,2.0941 z m 2.682008,-0.57877 c 0.621296,-0.85973 0.934224,-1.5544 0.747353,-1.98123 0.06919,-0.0233 0.137785,-0.0461 0.205059,-0.0681 0.796197,-0.26078 1.610847,-0.48945 2.433638,-0.68364 z m 23.162907,-0.49397 c 1.463769,-0.61052 1.781693,-1.34223 1.406861,-2.10134 0.497994,0.16906 0.991272,0.3567 1.485841,0.55881 0.515723,0.21079 1.026683,0.43294 1.537892,0.65438 0.585845,0.25391 1.16706,0.5205 1.74285,0.79863 -1.933177,-0.10916 -3.845644,-0.24138 -6.173444,0.0895 z m -19.967409,-0.28023 c 0.844201,-0.90771 1.307935,-1.64462 1.294502,-2.19777 0.456169,-0.0898 0.913397,-0.16877 1.370065,-0.23661 0.343748,-0.0511 0.688212,-0.0998 1.033158,-0.14612 -1.149782,0.90564 -2.38449,1.74287 -3.697725,2.5805 z m 70.926752,-0.0473 c -0.24657,-0.44923 -0.67104,-0.7645 -1.09411,-1.07873 -0.64694,-0.48064 -1.29061,-0.95884 -1.20426,-1.90905 v -0.009 c -0.003,-0.52585 2.32271,-2.55589 3.80842,-3.85279 l 0.31481,-0.27505 c 0.63967,-0.55982 1.29536,-1.09471 1.96823,-1.60221 0.65154,-0.49148 1.31878,-0.95666 2.00253,-1.39334 0.20698,0.2152 0.36109,0.45986 0.45898,0.73616 -0.79265,-0.093 -1.19851,0.66768 -1.69512,1.20168 -0.77494,0.83322 -1.51287,1.8389 -2.14517,2.84988 -0.36691,0.48645 -0.54771,1.07344 -0.94214,1.4778 -0.23669,0.24266 -0.51261,0.44224 -0.84647,0.57832 -0.86594,-0.36047 -1.59264,-0.49085 -1.82205,0.20064 0.94859,-0.47435 1.67385,0.0688 2.15937,0.44423 0.75752,0.58571 1.05198,1.61153 1.38443,2.54792 -0.34872,0.0956 -0.53196,-0.0886 -0.66863,-0.35108 -0.59967,-0.0146 -1.15458,0.1485 -1.67882,0.43444 z m 6.2546,-9.38381 c 0,2e-5 0,2e-5 0,5e-5 v 0 c 0,-3e-5 -4e-5,-3e-5 -4e-5,-5e-5 z m -37.942871,9.33901 c -0.465027,0.002 -0.900548,-0.17146 -1.319649,-0.44343 -0.531872,-0.34517 -0.842247,-1.26338 -1.347954,-1.76518 -0.573128,-0.5689 -1.488238,-0.0868 -1.954346,-1.05413 -0.113783,-0.18354 -0.190264,-0.39841 -0.272769,-0.61799 -0.07759,-0.20626 -0.235864,-0.42763 -0.178723,-0.66192 0.09304,-0.38169 0.16915,-0.84705 0.203347,-1.42237 0.143351,-0.73248 0.800424,-1.63581 1.377521,-1.51448 -0.407846,1.05791 -0.659081,2.16333 -0.350379,3.43837 1.654159,1.11451 3.406192,1.99263 5.429174,2.2173 l -0.30976,0.73368 -0.342417,0.84778 c -0.325755,0.16692 -0.635959,0.24084 -0.934045,0.24237 z m 24.546611,-0.0644 c -0.2027,-0.11964 -0.38337,-0.25966 -0.40359,-0.54843 -0.11721,-0.93479 -0.23452,-1.86951 -0.35179,-2.80431 -0.0668,-0.53203 -0.25072,-0.98036 -0.20037,-1.59628 -0.30949,-0.69723 -0.2677,-1.94771 -0.53959,-2.90896 0.45105,-0.0729 0.90031,-0.12384 1.34651,-0.13938 0.006,0.50133 0.0586,0.99083 0.14281,1.47174 0.0877,0.50084 0.21104,0.99511 0.35457,1.48549 0.15454,0.52776 0.41449,1.03329 0.67417,1.53828 0.41948,0.81582 0.83835,1.63042 0.786,2.50479 -0.63595,0.2845 -1.23473,0.62203 -1.80872,0.99706 z m -60.305027,-0.66547 c 0.609972,-0.69838 0.822908,-1.30488 0.531258,-1.80002 0.988851,-0.12824 1.981749,-0.23569 2.97646,-0.31886 -1.166982,0.62466 -2.332719,1.20426 -3.507718,2.11888 z m 13.436714,-0.25138 c -0.141887,0 -0.276427,-0.0139 -0.400998,-0.0437 1.299834,-0.39447 1.968464,-0.87369 2.006366,-1.43746 0.260955,0.0485 0.521031,0.10052 0.780048,0.15603 0.608625,0.13043 1.198728,0.29268 1.780417,0.48074 -0.71282,0.13473 -1.422878,0.31234 -2.123994,0.46603 -0.674592,0.14794 -1.427027,0.38136 -2.041839,0.37841 z m -10.744658,-0.0414 c 1.044412,-0.72868 1.484744,-1.35578 1.159628,-1.85395 1.136497,-0.0886 2.275064,-0.14504 3.41262,-0.16409 -1.334007,0.88497 -3.11016,1.27614 -4.572248,2.01804 z m 3.895703,-0.0244 c 1.282322,-0.77989 1.567318,-1.44149 0.965985,-1.99763 0.939267,-0.0104 1.884473,0.005 2.829546,0.0521 -1.241214,0.70259 -2.416594,1.50824 -3.795531,1.94555 z m 55.716708,-0.0976 c 0.023,-0.88616 -0.39351,-1.69617 -0.81052,-2.50715 -0.25585,-0.49753 -0.51194,-0.99553 -0.66091,-1.50453 -0.14104,-0.48191 -0.26245,-0.96918 -0.34949,-1.46576 -0.0831,-0.47439 -0.13428,-0.95504 -0.14072,-1.44402 0.3627,-0.005 0.7233,0.0158 1.0813,0.0683 -0.34471,1.99562 0.8471,3.64255 2.13476,5.26752 v 0 l -0.0355,0.0578 -0.008,0.0128 -0.005,0.0142 c -0.16845,0.40927 -0.0814,0.74656 0.12187,1.0347 -0.46147,0.12873 -0.90255,0.28555 -1.32704,0.46619 z m -52.659899,-0.10854 c 1.198207,-0.68996 1.789477,-1.24116 1.873343,-1.66641 0.912075,0.0718 1.821464,0.17625 2.72244,0.31929 -1.434475,0.56905 -2.983278,0.99734 -4.595783,1.34712 z m 32.754217,-0.0978 -4.467266,-0.63588 c -2.273672,-0.52134 -4.453585,-1.1006 -5.527011,-2.36403 -0.374155,-0.89278 -0.145444,-2.00915 0.07401,-3.12198 0.839967,0.095 1.120994,1.69163 1.188159,2.90572 0.0039,0.0765 0.565346,0.38551 0.703528,0.41624 0.568801,0.12629 1.201717,0.20927 1.68697,0.25456 2.18396,0.20363 4.407659,0.0434 6.34163,2.54537 z m -8.492559,-3.9353 c -0.03922,-0.3298 -0.100071,-0.69365 -0.195907,-1.03907 0.07604,-0.0965 0.131746,-0.23141 0.177859,-0.38956 -0.02778,-0.65475 0.235778,-1.0752 0.815195,-1.23098 0.100373,-0.19025 0.111308,-0.3804 0.08151,-0.57065 0.58309,0.25395 0.219621,1.10169 0.103114,1.59869 -0.03806,0.16274 -0.0096,0.41149 -0.07456,0.5676 -0.143537,0.34455 -0.421832,0.44278 -0.684336,0.73883 -0.07713,0.0868 -0.150004,0.2022 -0.222835,0.32514 z m -3.033757,-1.48749 c -0.01891,-0.43355 0.0054,-0.88457 -0.03923,-1.27982 -0.07752,-0.68058 -0.273602,-1.23995 -0.09159,-1.84062 -0.377603,-0.41742 -0.381844,-0.96345 -0.130446,-1.59776 0.222617,-1.00634 0.664054,-1.45888 1.255362,-1.53254 l -0.374964,0.70107 c 0.75484,-0.0391 1.24372,0.12146 0.782616,0.99453 -0.163063,0.29341 -0.187836,0.82275 -0.489129,0.8804 -0.274505,0.97124 -0.308391,1.90029 -0.10165,2.78736 -0.351243,0.19354 -0.637912,0.56887 -0.810915,0.88738 z m 2.663734,-0.0549 c -0.131209,-0.30504 -0.302086,-0.56723 -0.525093,-0.73826 0.01946,-0.0378 0.04024,-0.0783 0.04631,-0.0894 0.34504,-0.62848 0.721118,-1.2372 1.166018,-1.80181 0.431389,-0.54752 1.009,-0.82579 1.523361,-1.49586 -0.134486,-0.90615 0.506407,-0.97713 1.499974,-0.66844 0.317917,-0.18757 0.586935,-0.48909 0.880399,-0.73361 0.470949,0.81973 -0.63167,1.50778 -1.161488,1.94066 -0.386016,0.3155 -0.563867,1.05734 -1.430824,0.53743 -1.00332,0.66901 -1.609859,1.747 -1.998685,3.04934 z m 10.756955,-0.25719 c -0.275455,-0.29916 -0.123481,-0.8643 0.04483,-1.21341 0.13893,-0.28819 0.405356,-0.54063 0.839135,-0.74591 0.243957,-0.276 0.592554,-0.46462 0.970491,-0.62864 -0.102794,-0.48425 0.208757,-0.91845 0.752923,-1.32437 -0.0391,-0.14245 -0.0671,-0.29048 -0.0167,-0.47778 0.59884,0.37745 0.7174,0.90482 0.13387,1.65124 h -10e-6 c 0.0189,0.31381 0.0641,0.57024 -0.0815,0.81454 -0.18414,0.30876 -0.56369,0.35959 -0.999648,0.81237 -0.605326,0.16338 -1.15934,0.50695 -1.625121,1.08918 z m -11.513468,-0.6159 c -0.08318,-0.0346 -0.172177,-0.0584 -0.267399,-0.0691 -0.11183,-0.0125 -0.221839,-0.0142 -0.314679,-0.0191 0.182342,-1.14583 0.889535,-1.49861 1.005841,-3.40866 0.123348,-0.98388 0.873129,-1.23684 1.907556,-1.15755 0.23619,-0.19182 0.32317,-0.48788 0.342347,-0.83151 0.515295,0.16806 0.245109,1.01976 0.159943,1.50196 -0.07067,0.39953 -0.24325,0.78552 -0.534861,1.1556 -0.230898,0.23599 -0.413022,0.13037 -0.61956,0.19561 -0.775129,0.74647 -1.109071,1.69798 -1.653193,2.55172 -0.0047,0.008 -0.01557,0.0458 -0.02607,0.081 z m -0.985784,-0.0129 c -0.105666,-0.7908 -0.06623,-1.61061 0.151117,-2.41445 0.08923,-0.3299 0.460551,-0.29922 0.359788,-0.97852 0.195285,0.0922 0.433794,0.0542 0.715747,-0.11384 -0.04389,0.76635 -0.264543,1.55728 -0.666427,2.30147 -0.188576,0.34932 -0.260878,0.74683 -0.333125,1.13961 -0.07775,0.0123 -0.153678,0.0347 -0.2271,0.0658 z m 16.795341,-0.30373 -0.13746,-0.0412 c -0.42841,-0.12817 -0.85501,-0.21463 -1.27086,-0.24434 0.5004,-0.19381 0.98988,-0.41629 1.48722,-0.61712 0.11875,-0.0479 0.23016,-0.10524 0.33836,-0.16642 0.15008,-0.0728 0.23586,-0.1301 0.30535,-0.18158 0.11334,-0.0683 0.22764,-0.13514 0.34834,-0.19432 0.0874,-0.0428 0.17729,-0.0801 0.27076,-0.10765 0.43472,-0.12828 0.88023,-0.23234 1.33053,-0.29433 0.20368,-0.0219 0.40723,-0.0356 0.60858,-0.0431 0.082,0.0364 0.15332,0.0728 0.21848,0.10634 0.0228,0.0148 0.0417,0.0272 0.0536,0.0343 0.13287,0.0806 0.28271,0.15209 0.44239,0.13881 0.30662,-0.0254 0.66808,-0.25917 0.91789,-0.42723 0.0746,-0.0503 0.16069,-0.0903 0.24019,-0.13266 0.1016,-0.0542 0.19647,-0.11215 0.28485,-0.185 0.22799,-0.0838 0.43535,-0.18042 0.62475,-0.29468 0.18767,-0.0602 0.31132,-0.0773 0.49077,-0.17664 0.38945,-0.21561 0.72428,-0.4684 1.04395,-0.73139 0.1296,0.36617 -0.15741,0.7131 -0.46877,1.00957 -0.24225,0.23058 -0.59294,0.43319 -1.08597,0.59902 -0.74593,0.36833 -0.86485,0.956 -1.27774,0.99361 -0.17435,0.0158 -0.27823,-0.10623 -0.5109,-0.22466 -0.75966,-0.19042 -1.48661,-0.0925 -2.19638,0.15437 -0.6968,0.24237 -1.50136,0.6036 -2.05794,1.02616 z m 10.22505,-0.0944 c 0.007,-0.29991 -0.0199,-0.60381 0.0296,-0.88724 0.0395,-0.22611 0.17088,-0.42944 0.19479,-0.65545 0.0431,-0.40692 -0.0274,-0.85193 0.13342,-1.13958 0.25475,-0.456 0.71198,-0.70685 1.54478,-0.57692 0.27128,-0.13356 1.85478,-0.49512 2.15636,-0.0836 0.40812,-0.0282 0.64149,-0.18748 0.86927,-0.35105 -0.0322,0.60868 -0.50178,0.9638 -1.17013,1.20357 -0.66805,0.4134 -0.51627,0.78252 -0.83451,0.94989 -0.18125,0.0952 -0.38334,0.11288 -0.61974,0.003 -0.37346,-0.0454 -0.5908,0.16084 -0.65191,0.61852 -0.20432,0.23448 -0.28858,0.50044 -0.31219,0.78264 -0.44834,0.0153 -0.89605,0.0656 -1.33971,0.13627 z m 2.65436,-0.0677 -0.0176,-0.002 c -0.36834,-0.0539 -0.73847,-0.0748 -1.10864,-0.0704 0.0111,-0.1157 0.0335,-0.22571 0.0721,-0.33003 0.043,-0.0949 0.0938,-0.18702 0.1521,-0.27542 0.013,-0.0167 0.0265,-0.0332 0.0407,-0.0497 l 0.037,-0.0425 0.003,-0.0219 c 0.13476,-0.17771 0.29962,-0.33701 0.48645,-0.46856 0.2318,0.0827 0.46498,0.073 0.69114,-0.0458 0.0801,-0.0421 0.14655,-0.0977 0.20191,-0.16927 0.0393,-0.0509 0.0707,-0.10693 0.0997,-0.16424 l 5e-5,-6e-5 0.20263,-0.0583 c 0.24767,-0.0714 0.50865,-0.12578 0.76166,-0.17444 0.35298,-0.0679 0.70997,-0.1234 1.06718,-0.1633 0.43634,-0.0486 0.93177,-0.085 1.36843,-0.0335 h 0.008 0.009 c 0.85154,0.0225 1.52908,-0.22779 1.99508,-0.95822 l 0.005,-0.009 c 0.25731,-0.0454 0.51571,-0.0679 0.76491,-0.1756 -0.22267,0.60861 -0.73662,0.93959 -1.4055,1.12322 -0.47584,0.20068 -0.5834,0.65396 -0.98126,0.65432 -0.16793,0 -0.35627,-0.0626 -0.57485,-0.21846 -0.35599,0.29448 -0.67874,0.25043 -0.9788,-0.0252 -0.52776,0.0297 -0.89265,-0.0527 -1.30723,0.19231 -0.54034,0.31926 -1.28205,0.89611 -1.59306,1.48533 z m -15.168558,-0.0931 c 0.08106,-0.0636 0.166123,-0.12189 0.257446,-0.17967 0.07261,-0.0461 0.147292,-0.091 0.218852,-0.13993 0.13823,-0.0829 0.25001,-0.16921 0.33441,-0.2982 0.0604,-0.0924 0.0829,-0.18306 0.089,-0.2789 0.0439,-0.19314 0.0241,-0.38949 0.01,-0.59649 0.11432,-0.15351 0.20574,-0.30743 0.2698,-0.45931 0.19293,-0.20992 0.37489,-0.40238 0.55423,-0.59412 0.25092,-0.26809 0.33762,-0.62669 0.7094,-0.75996 0.4922,-0.17643 1.10506,-0.12826 1.79889,-0.08 0.50621,0.0352 0.0189,-0.31574 1.65594,0.16827 v 0 c 0.50084,-0.38447 1.83489,-0.67836 2.46195,0.0489 0.37888,0.0165 0.57912,-0.17562 0.81516,-0.32606 -0.28732,0.4829 -0.69685,0.92672 -1.5428,1.23065 -0.18238,0.15963 -0.37949,0.22283 -0.53403,0.32681 -0.35752,0.24051 -0.62242,0.37877 -0.82882,0.39592 -0.26047,0.0216 -0.55588,-0.33393 -0.71885,-0.29276 -0.64712,0.0308 -1.3059,0.16119 -1.97224,0.35783 -0.46098,0.13601 -0.81286,0.46739 -1.27996,0.65597 -0.61417,0.24806 -1.30029,0.56703 -1.950727,0.78548 -0.117084,0.006 -0.232868,0.0181 -0.347219,0.0356 z m 31.324418,-1.05899 c -0.0177,0 -0.036,-0.002 -0.0542,-0.005 -0.19791,-0.0339 -0.40898,-0.14718 -0.63523,-0.35322 -0.18496,0.0475 -0.38474,0.056 -0.63693,-0.0754 -0.37046,0.10808 -0.74106,0.0607 -1.11156,0 -0.41341,0.22949 -0.84762,0.35879 -1.30662,0.36928 l -0.002,-0.005 c -0.095,-0.26823 -0.23514,-0.50052 -0.40812,-0.7021 0.65759,0.0731 1.31884,0.0768 1.97781,0.004 l 0.0165,-0.002 0.016,-0.005 c 0.0973,-0.0288 0.19418,-0.0493 0.29092,-0.063 0.22106,-0.004 0.43987,-0.006 0.65429,-0.005 0.13537,0.0135 0.27116,0.0337 0.40833,0.0566 l 0.008,0.002 h 0.008 c 0.19907,0.0148 0.32961,0.37223 0.62311,0.36086 0.014,0 0.0278,-0.002 0.041,-0.004 0.0326,0.007 0.0677,0.0125 0.10593,0.0174 0.61716,-0.66467 1.11713,-0.45442 1.5673,-0.76133 0.12697,-0.0865 0.24337,-0.18091 0.34503,-0.28614 0.0677,-0.0663 0.12788,-0.13953 0.17885,-0.22043 0.0486,-0.0726 0.0907,-0.14982 0.1258,-0.23238 0.2453,0.0746 0.74585,-0.52111 0.73613,-0.17609 v 0 c -0.32569,0.94416 -0.9486,1.47538 -1.96592,1.45851 -0.35196,0.0258 -0.62049,0.62785 -0.98367,0.62618 z m -0.16646,-0.6091 c -0.1776,-0.004 -0.31614,-0.33974 -0.59341,-0.36053 -0.47078,-0.0786 -0.94434,-0.12912 -1.43757,0.0167 -0.7331,0.0807 -1.45422,0.0644 -2.16539,-0.0324 -0.35238,-0.32257 -0.79551,-0.55184 -1.25619,-0.7183 0.87329,-0.73858 2.6003,-0.27849 3.88574,-0.42706 0.24635,-0.0285 0.5245,-0.10598 0.74235,-0.004 0.10142,-0.12351 0.28049,-0.20291 0.49643,-0.2484 0.22389,-0.0471 0.45624,0.0176 0.7143,0.0318 0.43019,0.0239 0.87642,0.0419 1.06607,0.15264 0.11517,0.0672 0.18285,0.17053 0.18285,0.32372 0.25268,-0.0767 0.43655,-0.222 0.6107,-0.37722 -0.0508,0.70807 -0.69783,1.07771 -1.75271,1.21583 v -3e-5 c -0.23706,0.1771 -0.30295,0.4203 -0.48468,0.4273 -0.003,0 -0.005,0 -0.008,0 z m -15.18063,-0.11772 c 0.0446,-0.0715 0.0874,-0.13201 0.129,-0.18368 0.0745,-0.0718 0.15833,-0.13377 0.2483,-0.19054 0.24038,-0.0875 0.4756,-0.19699 0.67721,-0.33969 0.17982,-0.10289 0.39345,-0.26172 0.66048,-0.53498 0.35554,-0.17827 1.1559,-0.2521 1.7453,-0.20039 0.18042,0.0158 0.35634,-0.01 0.47436,0.0447 0.16092,0.0741 0.27375,0.20623 0.31525,0.424 -0.0813,-0.55494 0.37239,-0.42893 0.85338,-0.26823 -0.33285,0.52166 -0.84066,0.89787 -1.83219,0.87174 -0.99305,-0.11733 -2.68301,0.20771 -3.27109,0.37712 z"
         style="fill:#000000;stroke-width:0.04761018" />
      <text
         transform="scale(-1)"
         id="text907-3-1-2"
         y="-164.63086"
         x="-115.65007"
         style="font-style:normal;font-variant:normal;font-weight:normal;font-stretch:normal;font-size:10.21697426px;line-height:125%;font-family:'Linux Libertine';-inkscape-font-specification:'Linux Libertine';letter-spacing:0px;word-spacing:0px;fill:#ffffff;fill-opacity:1;stroke:none;stroke-width:0.47892061px;stroke-linecap:butt;stroke-linejoin:miter;stroke-opacity:1"
         xml:space="preserve"><tspan
           style="font-style:normal;font-variant:normal;font-weight:normal;font-stretch:normal;font-family:'Linux Libertine';-inkscape-font-specification:'Linux Libertine';fill:#ffffff;stroke-width:0.47892061px"
           y="-164.63086"
           x="-115.65007"
           id="tspan905-5-94-9"
           sodipodi:role="line">Fafnir</tspan></text>
    </g>
  </g>
</svg>
